<svg id="Layer_1" data-name="Layer 1" xmlns="http://www.w3.org/2000/svg" viewBox="0 0 144.13 35.16"><defs><style>.cls-1{fill:#1d1d1b;}</style></defs><title>Events</title><path class="cls-1" d="M39.66,90.52l-.4.19V90.2a.61.61,0,0,0-.22.06.61.61,0,0,1-.22.06s0-.06-.08-.18-.05-.2-.08-.22h-.24a.72.72,0,0,0-.22.08.67.67,0,0,0-.21.12h-.36s-.07,0-.12.08l-.12.12a2.07,2.07,0,0,1-.08.2s0,0,0,0a.07.07,0,0,1,0,.06.12.12,0,0,0,0,.08l-.4,0-.4,0a4.63,4.63,0,0,1-.49,0l-.38,0-.42-.25a2,2,0,0,1-.42-.34v.59l-1.15-.19v-.6l-.08-.08-.12-.12h-.24a1,1,0,0,0-.32.1,1.16,1.16,0,0,1-.27.1s-.08.06-.14.18a.65.65,0,0,0-.1.22l-.08.12-.08.08h-.24l-.2-.08s-.07,0-.12-.08a.09.09,0,0,0-.08,0h-.2a1.27,1.27,0,0,0-.3.2.83.83,0,0,1-.33.19h-.4l-.5-.18a3,3,0,0,1-.54-.21v-.6l0,0,.08-.08a.62.62,0,0,1,.12-.08v-.44a.45.45,0,0,1-.14-.1l-.1-.1a.51.51,0,0,0-.19-.06l-.24,0v-.35c0-.19,0-.31.08-.36a1.73,1.73,0,0,1,0-.3l.06-.46c0-.16,0-.3,0-.43s0-.22,0-.24V85a3,3,0,0,1,.1-.5,3.5,3.5,0,0,0,.09-.54s0-.24,0-.56,0-.58,0-.79v-.22a2.55,2.55,0,0,0,0-.38c0-.13,0-.26,0-.4v-.27a.93.93,0,0,1-.19-.2c-.08-.11-.14-.17-.16-.2a.1.1,0,0,1,0-.08.16.16,0,0,1,0-.12.22.22,0,0,1,0-.16.1.1,0,0,1,0-.08,1,1,0,0,0,.1-.3,1.84,1.84,0,0,0,.06-.34V79.7c0-.06-.06-.1-.18-.14a1,1,0,0,0-.26-.06l-.4.79H28s0-.06-.08-.1-.08-.07-.08-.1a1,1,0,0,1-.24-.1c-.13-.06-.2-.11-.2-.14v-.59a1.13,1.13,0,0,1,.18-.3,3.33,3.33,0,0,1,.26-.34s.06-.08.18-.18.18-.15.18-.18.07-.13.14-.24a1.13,1.13,0,0,1,.14-.19.09.09,0,0,1,.06-.08s.06-.06.06-.08V76a6.67,6.67,0,0,1,.24-.64,3.07,3.07,0,0,0,.2-.64v-.16a1.43,1.43,0,0,0-.18-.41,2.12,2.12,0,0,0-.26-.42,1.49,1.49,0,0,0-.06-.3,1.37,1.37,0,0,1-.06-.3,2.45,2.45,0,0,0,0-.34c0-.17-.06-.35-.1-.55s-.07-.39-.1-.58a2.73,2.73,0,0,1,0-.4v-.59l.18-.16.28-.26.26-.26c.08-.08.12-.13.12-.16a.37.37,0,0,0,0-.2.4.4,0,0,0,0-.2c0,.08.12.17.29.26a1.21,1.21,0,0,0,.34.14s.1,0,.2-.14a1.11,1.11,0,0,0,.24-.26l.1-.2a.45.45,0,0,0,.06-.2.56.56,0,0,0,.06.22c0,.1.08.16.14.18a.31.31,0,0,0,.28-.06.58.58,0,0,1,.23-.1,3.45,3.45,0,0,1,.06-.41,1.25,1.25,0,0,0,0-.5,2.37,2.37,0,0,0-.15-.38,2.67,2.67,0,0,0-.24-.42V67.4l.12-.31a1.85,1.85,0,0,1,.12-.32,1.46,1.46,0,0,0,.09-.42,4.29,4.29,0,0,0,.06-.46l.24-.12a3.42,3.42,0,0,0,.12-.63h.24v.16a0,0,0,0,0,0,0,.7.7,0,0,1,.14.23,1,1,0,0,1,.06.2,1.85,1.85,0,0,1,.4.16l.44.24h.23l.2-.14.32-.2.3-.18c.09-.05.14-.09.14-.12a.52.52,0,0,0,.24-.1.57.57,0,0,1,.2-.09h.19l.34.21a.78.78,0,0,1,.26.22c.05,0,.1.06.14.18a.39.39,0,0,0,.14.22.39.39,0,0,0,.18.14.56.56,0,0,0,.22.06c.05,0,.12-.07.2-.2v-.4a.54.54,0,0,1,.08-.24.84.84,0,0,0,.08-.19l.12,0,.11,0,.32.31c.16.16.27.24.32.24l.08,0,.08,0,.2-.06a.69.69,0,0,1,.24-.06.74.74,0,0,1,.32-.14.7.7,0,0,0,.27-.1h.44a2.24,2.24,0,0,1-.22.22c-.09.1-.16.14-.22.14a.12.12,0,0,0,0,.08.12.12,0,0,0,0,.08.94.94,0,0,1,.28.08c.13.05.21.07.24,0a.41.41,0,0,0,.22-.1,1.06,1.06,0,0,0,.22-.18h0a.12.12,0,0,0,.08,0l.08-.08a2.21,2.21,0,0,0,.1-.34.7.7,0,0,1,.1-.29l0,0a.13.13,0,0,1,.08,0l.08,0h0s.05,0,.07.08l.08.12a1.79,1.79,0,0,1,.4-.44,3.89,3.89,0,0,1,.44-.36s0,0,.12,0h.36c.08,0,.12,0,.12,0s.13.09.24.28.17.29.19.32.16.16.3.31l.3.32a.83.83,0,0,0,.16-.22.51.51,0,0,0,.08-.21s0-.07-.08-.12a.21.21,0,0,0-.16-.08s0-.06.1-.1a.37.37,0,0,0,.14-.14H43s.12.1.3.14a1.47,1.47,0,0,1,.33.1H44s.06,0,.1-.08l.1-.16h.16l.88.95,1.51-.71.28,2.5-1,.56s0,.12-.14.28a3.29,3.29,0,0,1-.26.32,0,0,0,0,1,0,0h-.16a0,0,0,0,1,0,0,.51.51,0,0,0-.19-.1.81.81,0,0,0-.24-.06l-.16.16a1,1,0,0,0,0,.19.32.32,0,0,1,0,.2.23.23,0,0,1-.08.16c-.05.06-.09.08-.12.08l-.2,0a1.45,1.45,0,0,1-.48,0l-.2,0-.17-.2a1.75,1.75,0,0,1-.18-.2c-.14-.08-.3-.16-.5-.25a1.37,1.37,0,0,0-.34-.14c-.05,0-.15.08-.3.26a1,1,0,0,1-.3.29h-.19a1.85,1.85,0,0,1-.38.1l-.66.14-.66.14-.37.06h-.6a.55.55,0,0,0-.2.1.55.55,0,0,1-.2.1.76.76,0,0,1-.3.06l-.45.06-.46.06-.26,0-.18,0-.32.08-.34.08-.19,0a.69.69,0,0,1-.24-.06l-.36-.12L35.18,70a.77.77,0,0,1-.22-.12V69a.15.15,0,0,0-.08-.13l-.12-.1s-.06,0-.1,0a.29.29,0,0,1-.14,0v1.27l-.39,0a1.11,1.11,0,0,1-.4-.06.62.62,0,0,0-.12-.08.14.14,0,0,1-.08-.12l-.2.44h-2.7a.76.76,0,0,0-.2.08.21.21,0,0,1-.12,0,.09.09,0,0,0-.08,0v.43a.44.44,0,0,0,.12.1s.08.08.08.1a1.55,1.55,0,0,0,.34.08l.25,0v.88a0,0,0,0,0,0,0h.2l.22-.1a.67.67,0,0,0,.18-.1h.2L32,72s.08.07.08.1v1l.2.06a.41.41,0,0,1,.2.14v.16c0,.08-.08.23-.14.46a1.92,1.92,0,0,0-.1.41s0,.08.1.16l.14.2a.36.36,0,0,0,.1.14.93.93,0,0,0,.1.1v.2l-.24.2c-.14.11-.2.19-.2.24v.79a1,1,0,0,1-.18.28c-.12.16-.19.27-.22.32v.4l.4-.16a.93.93,0,0,0,.08.3.82.82,0,0,0,.16.3h.43l.4-.06a2.68,2.68,0,0,0,.4-.1.18.18,0,0,1,.06-.14.71.71,0,0,0,.1-.14.51.51,0,0,0,.16-.2.71.71,0,0,1,.12-.2.35.35,0,0,0,.06.14c0,.07.07.1.1.1H35l.08.08.08.08.14,0,.14,0h.08a0,0,0,0,0,0,0s.13-.06.24-.18A.87.87,0,0,1,36,77l.08,0a.12.12,0,0,1,.08,0l.31.22a1.22,1.22,0,0,0,.28.18.4.4,0,0,0,.22,0l.22,0,.12.22a.49.49,0,0,1,.08.22h1.67s.07-.06.12-.18a.87.87,0,0,0,.08-.26v-.8s0,.07.08.12.09.08.12.08a2.81,2.81,0,0,0,.32.24,1.73,1.73,0,0,1,.27.2l.12.1a.31.31,0,0,0,.12.06,2,2,0,0,0,.08.34,1.4,1.4,0,0,0,.12.29s0,.06.16.1a.66.66,0,0,1,.24.14v.2s-.06,0-.1.06l-.1.1a.72.72,0,0,0-.1.24c0,.13-.07.2-.1.2s-.11,0-.18,0a.29.29,0,0,0-.14-.08,1,1,0,0,1-.08.26.51.51,0,0,0,0,.3,1.75,1.75,0,0,1,.2.18,1.22,1.22,0,0,0,.24.17l-.22.14a.38.38,0,0,1-.22.1s-.11,0-.27,0l-.32,0a.68.68,0,0,0-.2.1.55.55,0,0,1-.2.1h-.84a2.83,2.83,0,0,0-.39.08,3.75,3.75,0,0,0-.44.12l-.38.16-.63.26-.64.26a1.53,1.53,0,0,0-.34.16,2.71,2.71,0,0,1-.44.1,2.06,2.06,0,0,0-.44.1,5,5,0,0,0-.65.19l-.54.2a.69.69,0,0,0-.24.24s-.05.08-.08.24a1,1,0,0,1-.08.32,2.1,2.1,0,0,1-.1.42,4.23,4.23,0,0,1-.13.41l-.12.12c-.06.06-.08.1-.08.12a.42.42,0,0,0,0,.2v.28a1.49,1.49,0,0,0,0,.26c0,.12,0,.2,0,.26a.45.45,0,0,1,.22.08l.21.12.6.59.16,0h.12a.12.12,0,0,0,.08,0A.29.29,0,0,0,34,85.5a.29.29,0,0,1,.14-.08h.16a1.09,1.09,0,0,1,.25.12l.46.26.46.26.3.16a.5.5,0,0,0,.2.1c.1,0,.16.08.16.14s.1.12.15.3a1.18,1.18,0,0,1,.08.33,2.23,2.23,0,0,1,.18-.25q.15-.18.18-.18a1,1,0,0,1,.44,0l.36.06.08-.28-.24-.24s-.16-.09-.32-.2a.74.74,0,0,0-.32-.16.74.74,0,0,1,.2-.18.67.67,0,0,1,.24-.1s.09,0,.2.12a1,1,0,0,0,.24.16h.2l.26-.12a.72.72,0,0,0,.25-.16v.76l.12.08a.23.23,0,0,0,.2,0,2.29,2.29,0,0,0,.18-.24c.09-.13.17-.2.22-.2h.4a.14.14,0,0,1,.12.08.36.36,0,0,0,.08.12l-.1.1a.36.36,0,0,0-.1.14.53.53,0,0,0-.12.18.39.39,0,0,0-.08.18v.43l.2.2h.2l.12-.12.12-.08a1.84,1.84,0,0,0,.07-.41,1.27,1.27,0,0,1,.08-.38c0-.06.11-.1.24-.14s.2-.07.2-.1a1.76,1.76,0,0,0,.12-.36,1.86,1.86,0,0,0,.08-.36h1.83L43,85h1.67a1.55,1.55,0,0,0,0,.29.47.47,0,0,0,.12.3c0,.06.12.13.28.22a1.48,1.48,0,0,1,.31.22h.44s.06,0,.1.08l.1.12s0,.11,0,.24,0,.2,0,.2l.3.06a.87.87,0,0,1,.3.1c0,.05.06.19.12.41a1.91,1.91,0,0,0,.12.42.71.71,0,0,0,.18.22l.21.22.2-.2a2.26,2.26,0,0,1-.22-.32,2.19,2.19,0,0,0-.21-.32v-.16a3.26,3.26,0,0,0,.13-.63,1.71,1.71,0,0,1,.1-.44,2.41,2.41,0,0,0,.2-.22l.2-.22.16-.06.2,0a1.35,1.35,0,0,0,0,.24,1.38,1.38,0,0,1,0,.28s0,.06.06.1l.1.1h.28a3.65,3.65,0,0,1,.28-.48,4.17,4.17,0,0,1,.37-.52c.12-.13.21-.16.26-.09s0,.31-.12.73v1.23c.19-.18.33-.26.42-.23s.14.11.14.25a1.3,1.3,0,0,1-.16.56,2.86,2.86,0,0,1-.4.62c0,.08-.06.22-.1.42a.74.74,0,0,1-.14.37.83.83,0,0,1-.17.24c-.1.11-.2.21-.32.32l-.32.3-.18.18v.2h.44l-.44.83H46.42c0-.05-.06-.14-.18-.26s-.19-.18-.22-.18h-.79c-.06,0-.14-.06-.24-.19s-.18-.2-.2-.2h-.2v.91l-.4,0a3.5,3.5,0,0,0-.48,0,2.72,2.72,0,0,1-.53-.18l-.66-.26s-.06,0-.1-.08a.24.24,0,0,1-.06-.11s0-.06,0-.18,0-.2,0-.22-.09-.15-.28-.2a.34.34,0,0,1-.2-.1c-.08-.07-.13-.1-.15-.1h-.24a2.18,2.18,0,0,1-.08.42c-.06.2-.1.32-.12.38a.24.24,0,0,0-.08.11c0,.06-.06.08-.08.08l-.46.24-.38.2s-.06-.09-.12-.2l-.12-.24-.08-.1a.35.35,0,0,0-.07-.09h-.24ZM28.16,68.8a.74.74,0,0,1,.16-.32.91.91,0,0,1,.24-.28.86.86,0,0,1,.14.4,1.12,1.12,0,0,0,.14.43l0,.24a.61.61,0,0,1-.32-.08.84.84,0,0,1-.24-.2C28.21,68.89,28.16,68.82,28.16,68.8Zm1.19-1.4a.53.53,0,0,1,0-.16.24.24,0,0,0,0-.11l.4.31c.21.16.35.27.4.32l.12.3a1.33,1.33,0,0,1,.08.3v.32h-.16a0,0,0,0,1,0,0,.22.22,0,0,0-.06-.12l-.1-.16s-.07,0-.14-.16a1.41,1.41,0,0,0-.14-.2s-.06-.1-.18-.22-.18-.19-.18-.22a0,0,0,0,1,0,0A.17.17,0,0,1,29.35,67.4Zm.72,19.26q0-.12-.12-.12c-.11,0-.16,0-.16.12a.16.16,0,0,0,.28,0Zm.36,3.26c-.11,0-.16.07-.16.2s.05.2.16.2.16-.07.16-.2S30.53,89.92,30.43,89.92Zm1-14.76c-.1,0-.16.07-.16.22s.06.22.16.22.16-.07.16-.22S31.57,75.16,31.46,75.16ZM33.33,67v-.24h-.24Zm-.24,1.63.12-.12a.51.51,0,0,0,.12-.16V68a.44.44,0,0,0-.12-.1.41.41,0,0,1-.12-.14Zm1.08-3.94a.07.07,0,0,1,.08.08.14.14,0,0,1-.08.12c-.11,0-.16,0-.16-.06S34.06,64.7,34.17,64.7Zm.59,1.47c-.13,0-.2.06-.2.18s.07.18.2.18.16-.06.16-.18S34.87,66.17,34.76,66.17Zm3.07,20.49c-.11,0-.16.07-.16.22s0,.21.16.21S38,87,38,86.88,37.91,86.66,37.83,86.66Zm.16-7.4h.23V78.9H38Zm2.5-13.37a.23.23,0,0,0,.08.16l.12.12a1,1,0,0,0,.2-.28v-.16a.37.37,0,0,1,0-.12.19.19,0,0,0,0-.08h-.24l-.12.1a.19.19,0,0,0-.08.14v.12Zm.4,13.37c.13,0,.2.07.2.22s-.07.22-.2.22-.16-.08-.16-.22S40.78,79.26,40.89,79.26Zm0-2s0-.09,0-.2,0-.19,0-.24a2.82,2.82,0,0,1,.46.3l.38.3a3.85,3.85,0,0,1,.11.5,3.06,3.06,0,0,1,.08.49l-.29,0a1,1,0,0,1-.34-.08,1.58,1.58,0,0,1-.1-.24.84.84,0,0,1-.06-.19.81.81,0,0,1-.12-.08c-.08,0-.12-.06-.12-.08s0-.13,0-.22S40.85,77.28,40.85,77.23Zm.4-8.63a0,0,0,0,0,0,0s0,0,.08.08a.36.36,0,0,1,.12.08.6.6,0,0,0,.24-.44c0-.11-.08-.16-.24-.16s-.05,0-.06,0a.07.07,0,0,0-.06,0l-.08.08,0,.16Zm.67-2.71s0-.08-.1-.08-.12,0-.09.08,0,.12.07.12S41.9,66,41.92,65.89Zm.16,10.7h-.16v-.2Zm0-7.4c.14,0,.2.08.2.22s-.06.22-.2.22-.12-.07-.12-.22S42,69.19,42.08,69.19Zm.44,7.6s.08.06.08.1,0,.07-.08.1-.08,0-.08-.1S42.47,76.77,42.52,76.79Zm0,1a.29.29,0,0,1,.08.21.29.29,0,0,1-.08.22c-.05,0-.08,0-.08-.22S42.47,77.8,42.52,77.83Zm.6-12.06c-.08,0-.12.07-.12.2s0,.2.12.2a.2.2,0,1,0,0-.4Zm.47,11c.06,0,.08.07.08.22s0,.22-.08.22-.19-.07-.19-.22S43.46,76.79,43.59,76.79Zm0,13.92h.2a.22.22,0,0,0-.08-.19l-.12-.2Zm2.23-3.06s.06,0,.1-.1.07-.1.1-.1v0s0,0,0,0,0,0,0,0v-.08h-.24Zm.2,2.07c-.1,0-.16.07-.16.2s.06.2.16.2.16-.07.16-.2S46.13,89.72,46,89.72Zm.4-4.3a.1.1,0,0,1,0,.16c-.05.06-.12.06-.2,0s-.07-.07,0-.14S46.39,85.37,46.42,85.42Zm-.2-17.06a2,2,0,0,0,.42-.26,2,2,0,0,0,.38-.34.14.14,0,0,0,.13-.08l.1-.12c.06,0,.1-.1.14-.22a1.25,1.25,0,0,0,.06-.21,2.81,2.81,0,0,0-.24-.36l-.15-.32a.33.33,0,0,1,0-.28c-.38.16-.46.15-.24,0a5.14,5.14,0,0,1,.87-.54L47,65.34s0,0,.19-.08a1.34,1.34,0,0,0,.24-.12.75.75,0,0,1,.18-.32l.22-.28a.73.73,0,0,1,0-.22.69.69,0,0,0,0-.22h.6v.16l-.16.32a.92.92,0,0,0-.12.32c0,.1.09.18.28.24h.16a.93.93,0,0,1,.1-.1.71.71,0,0,0,.1-.14,1,1,0,0,1,.11-.2.32.32,0,0,0,.08-.16.92.92,0,0,1,.12.16.75.75,0,0,1,.12.2c0,.16.06.24.16.24a1.13,1.13,0,0,0,.34-.12,1.35,1.35,0,0,1,.3-.12.54.54,0,0,0,.08.24.92.92,0,0,0,.12.2h.36a4.57,4.57,0,0,0,.45-.24,1.29,1.29,0,0,1,.42-.2l.64.3a2.2,2.2,0,0,1,.59.33h-1c0,.08,0,.22,0,.42s0,.41-.06.62-.05.41-.08.59a2.73,2.73,0,0,0,0,.4.65.65,0,0,0-.1.22.39.39,0,0,1-.14.22s0-.06-.08-.1a.17.17,0,0,1-.08-.14.64.64,0,0,1,0-.3,2.65,2.65,0,0,0,0-.33,2.2,2.2,0,0,1-.12-.36,2.85,2.85,0,0,1-.08-.4c0-.05-.06-.14-.12-.26a.46.46,0,0,0-.15-.22h-.12a1.85,1.85,0,0,0-.1.34.51.51,0,0,1-.14.3,3.26,3.26,0,0,1-.3.34c-.17.17-.27.26-.3.26V68l.1.12s.07.08.1.08a.88.88,0,0,1-.2.22,1.88,1.88,0,0,0-.24.22h-.16a.73.73,0,0,0-.22-.24,2.27,2.27,0,0,1-.21-.2.74.74,0,0,0-.2.06c-.11,0-.16.07-.16.1a1.3,1.3,0,0,0-.24.34c-.11.17-.17.28-.2.33h-.24s-.06,0-.1-.11-.07-.12-.1-.12a.89.89,0,0,0-.42,0,1,1,0,0,1-.37,0l-.2,0a.54.54,0,0,1-.24-.12l-.12-.12A.27.27,0,0,1,46.22,68.36Zm.4-1.83c-.06,0-.08,0-.08.14s0,.12.08.1.12-.07.12-.12S46.7,66.56,46.62,66.53ZM47,85.42c.13,0,.19.08.19.22s-.06.22-.19.22-.12-.07-.12-.22S46.94,85.42,47,85.42Zm.83-18.29s0,.07.1.13l.14.14.2-.39a5.21,5.21,0,0,1,.24-.48v-.16l-.14-.1a.46.46,0,0,1-.14-.1s-.09.19-.18.4a3.46,3.46,0,0,1-.22.44v.12Zm.24,20.52.16-.2-.16-.2Zm.6,0,.2-.2-.36.28Zm.63,2.07c.08,0,.12.07.12.2s0,.2-.12.2a.2.2,0,0,1,0-.4Zm.8-3.7a.83.83,0,0,0-.1-.2.45.45,0,0,1-.1-.24.84.84,0,0,1-.06-.32c0-.15,0-.26,0-.31l.42,0,.42,0a.57.57,0,0,0,.21-.06c.1,0,.14,0,.14,0,.11.29.06.47-.14.55s-.31.11-.33.08l0,.12,0,.16.43.24a1,1,0,0,1,.32.18l.16.14a1.47,1.47,0,0,0-.28.16l-.24.16v.08a.87.87,0,0,1-.14.27c-.06.11-.11.16-.13.16a.82.82,0,0,1-.3-.08l-.26-.08Zm.2-18.89a.18.18,0,0,1,.2.21c0,.15-.07.22-.2.22s-.16-.07-.16-.22S50.21,67.13,50.32,67.13Zm.36-.6c.13,0,.19.08.19.24s-.06.24-.19.24-.08-.08-.08-.24S50.62,66.53,50.68,66.53Zm1.71,17.82v.12a.53.53,0,0,1,0,.16l-.08.16s0,.06,0,.12a.2.2,0,0,1,0,.08v1a1.73,1.73,0,0,1-.44.44,1.88,1.88,0,0,0-.06-.38c0-.17-.09-.36-.14-.56s-.1-.38-.14-.55a1.44,1.44,0,0,0-.1-.34v-.28Z" transform="translate(-27.36 -58.25)"/><path class="cls-1" d="M61,88.73a4.35,4.35,0,0,1-.92-.88,5.37,5.37,0,0,1-.54-.93,7.31,7.31,0,0,1-.35-1.06l-.34-1.27a1,1,0,0,0-.26-.42l-.36-.36-.36-.36a.71.71,0,0,1-.21-.45,9.75,9.75,0,0,0-.36-1.08c-.14-.32-.26-.62-.38-.91s-.24-.59-.36-.9a6,6,0,0,1-.3-1A1.37,1.37,0,0,0,56,78.5c-.13-.21-.27-.42-.41-.63l-.44-.62a1.7,1.7,0,0,1-.3-.58,3.41,3.41,0,0,0-.06-.4c0-.21-.08-.43-.12-.67s-.08-.47-.12-.68a2,2,0,0,0-.1-.4.9.9,0,0,0-.14-.27,3.6,3.6,0,0,0-.22-.36s-.06,0-.11-.08a.62.62,0,0,0-.12-.08,2.19,2.19,0,0,1-.1-.5,3.3,3.3,0,0,0-.1-.5.42.42,0,0,0-.38-.31.52.52,0,0,1-.42-.28A4,4,0,0,0,52.33,71a6.8,6.8,0,0,1-.63-1.27s.06,0,.1-.08.07-.08.1-.08h.16l1,.2a2,2,0,0,1,.62.16v.12A2.15,2.15,0,0,0,54.4,70a1.6,1.6,0,0,1,.6-.08.31.31,0,0,1,.26.14,2.61,2.61,0,0,0,.24.3,1.8,1.8,0,0,0,.38.3,1.26,1.26,0,0,0,.63.13,1,1,0,0,0,.86-.35,4.15,4.15,0,0,0,.45-.84.92.92,0,0,1,.14.22,3,3,0,0,1,.2.4,3.79,3.79,0,0,1,.18.42.94.94,0,0,1,.08.31,1.41,1.41,0,0,1-.08.32.86.86,0,0,1-.12.28s0,0,0,.08v.16a6.25,6.25,0,0,0,.12,1c.08.46.18.93.3,1.44s.24,1,.38,1.41a2.49,2.49,0,0,0,.4.89h.19l.22-.1.22-.1a2.56,2.56,0,0,0,.14,1.4,8.7,8.7,0,0,1,.46,1.39c.08.32.14.62.2.91a3,3,0,0,0,.26.82,2.11,2.11,0,0,0,.49.66,2.06,2.06,0,0,0,.92.39v1.52a.17.17,0,0,0,.12,0h.16a.4.4,0,0,0,.2-.07.93.93,0,0,1,.19-.12,3.57,3.57,0,0,0,0,1.17,1.78,1.78,0,0,0,.56,1c.13-.5.28-1.12.44-1.87a10.25,10.25,0,0,1,.56-1.87,1.19,1.19,0,0,1,.55-.57c.29-.17.44-.35.44-.54v-.12a2,2,0,0,1-.2-.26,3,3,0,0,1-.2-.3.62.62,0,0,1-.08-.23h.64q0-.33-.12-.42t-.12-.54a.8.8,0,0,1,.54.14,1.17,1.17,0,0,1,.22.34,3,3,0,0,0,.2.4.75.75,0,0,0,.47.31,1,1,0,0,1,.32-.91c.27-.27.5-.49.72-.68h-1a.54.54,0,0,0-.1-.49.7.7,0,0,0-.33-.2,3.35,3.35,0,0,1-.38-.14q-.18-.08-.18-.36a1.47,1.47,0,0,1,.12-.54,2.62,2.62,0,0,1,.32-.59,2,2,0,0,1,.45-.5.87.87,0,0,1,.5-.2v.88h.72a1.89,1.89,0,0,1,.1-.7c.06-.17.14-.33.21-.48a2.67,2.67,0,0,0,.22-.48,2,2,0,0,0,.1-.73c.14,0,.24.11.32.34a1.65,1.65,0,0,1,.12.45l.8-.19v0s0,0,0,0,0,0,0,0l0-.08a.27.27,0,0,0-.2-.12c-.11,0-.18-.07-.2-.12v-.16a2.63,2.63,0,0,1,.18-.32,1.52,1.52,0,0,1,.22-.32.77.77,0,0,1-.54-.28.62.62,0,0,0-.54-.2,4.38,4.38,0,0,0,0,.5c0,.17-.1.26-.4.26a6.45,6.45,0,0,1,.1-1.19,2,2,0,0,1,.34-.8,2.4,2.4,0,0,1,.62-.56,4.72,4.72,0,0,1,1-.43.69.69,0,0,1,.24-.14c.11,0,.16-.08.16-.1V67.84a.16.16,0,0,1-.1,0,.17.17,0,0,0-.14,0,.86.86,0,0,1-.06.2c0,.11-.07.16-.1.16h-.2a5,5,0,0,1-.61-.08,5.75,5.75,0,0,0-.58-.08l0-.08v0a.1.1,0,0,1,0-.08,1,1,0,0,1,.36-.2.31.31,0,0,0,.24-.32V67.2l-.2-.09a.87.87,0,0,1-.2-.1l0-.12,0-.08a1.42,1.42,0,0,1,.42-.34l.59-.36.54-.32q.24-.14.24-.18t-.36-.24c-.16-.15-.24-.27-.24-.35a1,1,0,0,1,.06-.46,2.26,2.26,0,0,1,.28-.5,2.44,2.44,0,0,1,.38-.4.64.64,0,0,1,.4-.15.39.39,0,0,0-.08-.28,1.08,1.08,0,0,0-.2-.16,2,2,0,0,1-.2-.16.41.41,0,0,1-.08-.28c0-.11,0-.17.1-.2a1.2,1.2,0,0,1,.24-.06.84.84,0,0,0,.24-.06.16.16,0,0,0,.1-.16.2.2,0,0,0,0-.08,1.31,1.31,0,0,0-.3-.16,1.33,1.33,0,0,0-.3-.08l.34-.31a.67.67,0,0,0,.26-.44.19.19,0,0,0-.08-.14l-.16-.1a2.3,2.3,0,0,1-.38-.08,2.18,2.18,0,0,0-.42-.08.6.6,0,0,1,.4-.3l.68-.22a1.52,1.52,0,0,0,.59-.35.72.72,0,0,0,.12-.72h.44v.16l.26,0c.09,0,.14-.1.14-.26l0-.08s-.1-.09-.2-.2-.16-.17-.16-.2a.33.33,0,0,1-.08-.24l.26.08.42.18.37.2q.18.1.18.18a1,1,0,0,1-.06.26.57.57,0,0,1-.14.26h1a.73.73,0,0,0-.22.22,2.11,2.11,0,0,0-.18.26v.19a1.63,1.63,0,0,1,.4-.21l.4-.18h.08l.06,0s0,0,.06,0a.86.86,0,0,1,.41.14,5.48,5.48,0,0,1,.52.31,4.43,4.43,0,0,1,.46.38c.13.13.2.23.2.28a.35.35,0,0,1-.24.34,2,2,0,0,0-.36.18l-.12.1s-.08.07-.08.1c0,.21,0,.35.1.41a.82.82,0,0,0,.22.16,1.38,1.38,0,0,0,.22.1.21.21,0,0,1,.1.2s0,0,0,.08l-.2.2a3,3,0,0,0-.22.5c-.09.25-.15.42-.18.49h-.24a1.76,1.76,0,0,1,0-.19.79.79,0,0,0,0-.2.86.86,0,0,0,.12-.28,1.54,1.54,0,0,0,.08-.32s-.06-.09-.18-.2-.19-.16-.22-.16-.15-.24-.29-.49-.25-.42-.3-.5-.26.21-.3.48-.08.43-.1.51v.08a.68.68,0,0,0,.12.38.74.74,0,0,1,.12.42,1.2,1.2,0,0,1-.14.57,1.35,1.35,0,0,0-.14.62s0,.13,0,.24,0,.19,0,.24.06,0,.12-.08.08-.09.08-.12.06-.21.12-.48a3.9,3.9,0,0,0,.08-.52l.2.24v2c0,.14-.11.2-.32.2a.61.61,0,0,1-.32-.08,4.42,4.42,0,0,1-.08.86,4.12,4.12,0,0,0-.08.81.3.3,0,0,0,.12.28.31.31,0,0,1,.12.28,5.77,5.77,0,0,1-.14,1.35,6.84,6.84,0,0,1-.36,1.08,10.32,10.32,0,0,1-.48,1,7,7,0,0,0-.45,1.13s0,.1,0,.22a2.32,2.32,0,0,0-.06.38q0,.19-.06.36a.92.92,0,0,0,0,.2l-.18.61-.18.62a.76.76,0,0,0-.22-.14l-.22-.1h-.2a1,1,0,0,1-.08.32,2,2,0,0,0-.08.28l-.2.2,0,.12,0,.08s0,.06.1.12.1.09.1.12a.56.56,0,0,1-.06.31l-.12.16a.86.86,0,0,0-.09.26,3,3,0,0,0,0,.62h.35c0,.21-.12.34-.37.4a.52.52,0,0,0-.46.39s0,.1.06.2a.83.83,0,0,1,.1.2v0a.1.1,0,0,0,0,.08s0,0,0,.08a1.22,1.22,0,0,1-.38.12.53.53,0,0,0-.42.28,9.68,9.68,0,0,0-.12,1.17,3.11,3.11,0,0,1-.24,1.21,1.45,1.45,0,0,1-.22.18c-.11.1-.17.16-.17.18a4.09,4.09,0,0,0-.12.5,2.46,2.46,0,0,0-.08.5h-.8a.58.58,0,0,0,.22-.54,2.77,2.77,0,0,1-.06-.62h-.16A1.19,1.19,0,0,1,68.54,83a3.35,3.35,0,0,1-1.21.43.08.08,0,0,1,0,.06.14.14,0,0,0,0,.06,1.94,1.94,0,0,0,.44,1,4,4,0,0,0,.75.85,5.15,5.15,0,0,0,.6-.71,2.16,2.16,0,0,0,.4-.88l.12.2a.43.43,0,0,1,.08.2v.08a2.83,2.83,0,0,1-.34,1.41,1.19,1.19,0,0,1-1.13.62v1.07h-.72a1.13,1.13,0,0,1,.32-.81,1.13,1.13,0,0,0,.32-.78v-.2a6.24,6.24,0,0,0-.66.6,1.67,1.67,0,0,0-.32.48,2.13,2.13,0,0,0-.12.55c0,.22,0,.49,0,.84a1.64,1.64,0,0,0,.36-.06,1.73,1.73,0,0,1,.32-.06c.18,0,.25.13.2.24l-.4,1h-.32a4.2,4.2,0,0,0,0-.43c0-.22-.1-.34-.26-.36a1.26,1.26,0,0,1,0,.55,2,2,0,0,1-.16.6s-.08.16-.25.32a3.3,3.3,0,0,1-.34.28,1.33,1.33,0,0,0-.22.63.74.74,0,0,1-.34.56,3.91,3.91,0,0,1-.75.4c-.32.13-.63.27-.92.42a2.84,2.84,0,0,0-.72.49.7.7,0,0,0-.19.68l-.8-.64v.76a.94.94,0,0,1-.86-.54,2.54,2.54,0,0,1-.33-1ZM57,79.26c-.11,0-.16.06-.16.18s.05.18.16.18.16-.06.16-.18S57.13,79.26,57,79.26Zm3.58,7.32h.2v-.2h-.2Zm.2-2.59H61v-.2h-.16ZM61,81.84a.41.41,0,0,0,.35.46,4,4,0,0,0,.64.06v-.24a.87.87,0,0,1-.79-.48.22.22,0,0,0-.12.06A.16.16,0,0,0,61,81.84Zm1.39,9.87.2.2.2-.2-.4-.2v.2Zm.79,0h.4l-.2-.2Zm.4-5.13c-.1,0-.16.06-.16.18s.06.18.16.18.16-.06.16-.18S63.66,86.58,63.55,86.58Zm1-2.39c-.06,0-.08,0-.08.08s0,.12.08.12S64.68,84.27,64.55,84.19Zm1.55-1c.05-.06,0-.08-.06-.08s-.14,0-.14.08a.14.14,0,0,0,.12.08A.07.07,0,0,0,66.1,83.2Zm1.23,1.19s0-.08-.12-.08-.12,0-.12.08S67.28,84.55,67.33,84.39Zm.56-7.12h.4v-.2h-.4Zm.24,3.14c-.14,0-.2.07-.2.22s.06.22.2.22.12-.07.12-.22S68.21,80.41,68.13,80.41Zm0,2h.16V82h-.16Zm.75-1c-.1,0-.16.07-.16.21s.06.22.16.22.16-.07.16-.22S69,81.41,68.88,81.41Zm.2-6.09c-.1,0-.16.06-.16.18s.06.18.16.18.16-.06.16-.18S69.19,75.32,69.08,75.32Zm.4,5.29h.2v-.2Zm.2-9.67c-.11,0-.16.07-.16.2s0,.2.16.2.16-.06.16-.2S69.78,70.94,69.68,70.94Zm.52-4.37a.64.64,0,0,0,.07.24,3.13,3.13,0,0,1,.28.3,1.46,1.46,0,0,0,.28.25.1.1,0,0,0,.08,0H71l.08,0a.63.63,0,0,0,.2-.25,1.37,1.37,0,0,1,.2-.3v-.24Zm.63,4.57.1.12a.16.16,0,0,0,.14.08.78.78,0,0,0,.44-.63l-.42,0a.27.27,0,0,0-.26.28Zm.8-5.33c.05,0,0-.08-.06-.08s-.13,0-.1.08,0,.08.08.08S71.63,65.87,71.63,65.81Zm.24,3.54a.57.57,0,0,0-.26.28c0,.11-.09.21-.14.32l.08,0a.26.26,0,0,0,.26-.14.65.65,0,0,0,.06-.26Zm-.24-4.45.43,0c.22,0,.34-.1.36-.26s-.09-.2-.2-.2h-.59Zm.79,2.3a4.3,4.3,0,0,1-.12.58,1.61,1.61,0,0,1-.24.58h1a1.61,1.61,0,0,1-.26-.66A.58.58,0,0,0,72.42,67.2Zm.44,4.3a.5.5,0,0,0-.44.24h.44Zm.2-7.88s0-.07-.12-.07-.11,0-.08.07.06.08.1.08S73,63.68,73.06,63.62ZM74,68h.24a.42.42,0,0,0-.24-.4Zm1.2-7.32c.05.16.2.25.44.26l.43,0c0-.05,0-.2,0-.44a.43.43,0,0,0-.26-.44Z" transform="translate(-27.36 -58.25)"/><path class="cls-1" d="M90,90.52l-.4.19V90.2a.66.66,0,0,0-.22.06.56.56,0,0,1-.22.06s0-.06-.08-.18a.54.54,0,0,0-.07-.22h-.24a1.61,1.61,0,0,0-.44.2H88s-.07,0-.12.08l-.12.12a.93.93,0,0,1-.08.2l0,0a.07.07,0,0,1,0,.06.2.2,0,0,0,0,.08l-.39,0-.4,0a4.71,4.71,0,0,1-.5,0l-.38,0s-.19-.11-.41-.25a1.56,1.56,0,0,1-.42-.34v.59l-1.16-.19v-.6l-.08-.08-.12-.12h-.23a1,1,0,0,0-.32.1,1.15,1.15,0,0,1-.28.1s-.07.06-.14.18a.65.65,0,0,0-.1.22.62.62,0,0,1-.08.12l-.08.08H82.2l-.2-.08s-.06,0-.12-.08a.09.09,0,0,0-.07,0h-.2a.94.94,0,0,0-.3.2.84.84,0,0,1-.34.19h-.4l-.49-.18a3,3,0,0,1-.54-.21v-.6l0,0,.08-.08a.31.31,0,0,1,.12-.08v-.44a.36.36,0,0,1-.14-.1.93.93,0,0,1-.1-.1.68.68,0,0,0-.2-.06l-.24,0v-.35a.55.55,0,0,1,.08-.36,1.73,1.73,0,0,1,0-.3,3.4,3.4,0,0,0,.06-.46c0-.16,0-.3,0-.43s0-.22,0-.24V85a3,3,0,0,1,.1-.5,4.1,4.1,0,0,0,.1-.54s0-.24,0-.56,0-.58,0-.79v-.22c0-.12,0-.24,0-.38a2.61,2.61,0,0,1,0-.4v-.27a.74.74,0,0,1-.2-.2,1.85,1.85,0,0,0-.16-.2.1.1,0,0,1,0-.08.16.16,0,0,1,0-.12.22.22,0,0,1,0-.16.1.1,0,0,1,0-.08.78.78,0,0,0,.1-.3,1.84,1.84,0,0,0,.06-.34V79.7c0-.06-.06-.1-.18-.14a1,1,0,0,0-.26-.06l-.4.79h-.2a.16.16,0,0,0-.07-.1c-.06,0-.08-.07-.08-.1a.77.77,0,0,1-.24-.1c-.14-.06-.2-.11-.2-.14v-.59a1.13,1.13,0,0,1,.18-.3,2.3,2.3,0,0,1,.26-.34s.06-.08.17-.18.18-.15.18-.18l.14-.24.14-.19a.09.09,0,0,1,.06-.08s.06-.06.06-.08V76l.24-.64a3.07,3.07,0,0,0,.2-.64v-.16a1.43,1.43,0,0,0-.18-.41,2.12,2.12,0,0,0-.26-.42,1.49,1.49,0,0,0-.06-.3,1.37,1.37,0,0,1-.06-.3,2.45,2.45,0,0,0,0-.34c0-.17-.06-.35-.1-.55s-.07-.39-.1-.58,0-.32,0-.4v-.59l.18-.16a3.45,3.45,0,0,0,.28-.26l.26-.26c.08-.08.12-.13.12-.16s0-.09,0-.2a.31.31,0,0,0,0-.2.57.57,0,0,0,.3.26,1,1,0,0,0,.34.14.64.64,0,0,0,.19-.14,1.11,1.11,0,0,0,.24-.26l.1-.2a.45.45,0,0,0,.06-.2.56.56,0,0,0,.06.22.3.3,0,0,0,.14.18.31.31,0,0,0,.28-.06.61.61,0,0,1,.24-.1,3.45,3.45,0,0,1,.06-.41,1.48,1.48,0,0,0,0-.5,3.26,3.26,0,0,0-.16-.38,2.67,2.67,0,0,0-.24-.42V67.4a2,2,0,0,0,.12-.31,1.85,1.85,0,0,1,.12-.32,1.7,1.7,0,0,0,.1-.42,4.29,4.29,0,0,0,.06-.46l.24-.12c0-.08,0-.19.08-.34s0-.24,0-.29H82v.16a0,0,0,0,0,0,0,.56.56,0,0,1,.14.23,1,1,0,0,1,.06.2,1.52,1.52,0,0,1,.4.16l.44.24h.24a1,1,0,0,1,.2-.14l.31-.2.3-.18c.1-.05.14-.09.14-.12a.52.52,0,0,0,.24-.1.66.66,0,0,1,.2-.09h.2l.34.21a.83.83,0,0,1,.25.22c.06,0,.1.06.14.18a.39.39,0,0,0,.14.22.39.39,0,0,0,.18.14.66.66,0,0,0,.22.06s.12-.07.2-.2v-.4a.72.72,0,0,1,.08-.24.84.84,0,0,0,.08-.19l.12,0,.12,0,.32.31c.16.16.26.24.31.24l.08,0,.08,0a.74.74,0,0,0,.2-.06.81.81,0,0,1,.24-.06.74.74,0,0,1,.32-.14.78.78,0,0,0,.28-.1H89l-.22.22c-.1.1-.17.14-.22.14a.09.09,0,0,0,0,.08.09.09,0,0,0,0,.08,1.13,1.13,0,0,1,.28.08c.13.05.21.07.23,0a.38.38,0,0,0,.22-.1.85.85,0,0,0,.22-.18h0a.1.1,0,0,0,.08,0l.08-.08a1.44,1.44,0,0,0,.1-.34.7.7,0,0,1,.1-.29l0,0a.12.12,0,0,1,.08,0l.08,0h0s.05,0,.08.08a.36.36,0,0,0,.08.12,1.45,1.45,0,0,1,.4-.44,4.11,4.11,0,0,1,.43-.36s0,0,.12,0h.36c.08,0,.12,0,.12,0s.13.09.24.28a2.11,2.11,0,0,0,.2.32l.3.31.29.32a.66.66,0,0,0,.16-.22.4.4,0,0,0,.08-.21s0-.07-.08-.12a.19.19,0,0,0-.16-.08s0-.06.1-.1a.31.31,0,0,0,.14-.14h.2a.51.51,0,0,0,.3.14,1.85,1.85,0,0,1,.34.1h.4s.06,0,.1-.08a.89.89,0,0,0,.09-.16h.16l.88.95,1.51-.71.28,2.5-1,.56s0,.12-.13.28-.21.26-.26.32a0,0,0,0,1,0,0h-.16a0,0,0,0,1,0,0,.71.71,0,0,0-.2-.1.81.81,0,0,0-.24-.06l-.16.16s0,.09,0,.19,0,.18,0,.2a.23.23,0,0,1-.08.16c0,.06-.09.08-.12.08l-.2,0a1.15,1.15,0,0,1-.24,0,1.11,1.11,0,0,1-.23,0l-.2,0a1.41,1.41,0,0,1-.18-.2L93.7,69a4.63,4.63,0,0,0-.5-.25,1.37,1.37,0,0,0-.34-.14s-.15.08-.29.26a1.37,1.37,0,0,1-.3.29h-.2a1.85,1.85,0,0,1-.38.1l-.66.14c-.23.06-.45.1-.65.14l-.38.06h-.6a.65.65,0,0,0-.2.1.55.55,0,0,1-.19.1.86.86,0,0,1-.3.06l-.46.06-.46.06-.26,0-.18,0-.31.08-.34.08-.2,0a.81.81,0,0,1-.24-.06l-.36-.12L85.52,70a.67.67,0,0,1-.21-.12V69a.17.17,0,0,0-.08-.13.76.76,0,0,1-.12-.1s-.06,0-.1,0a.33.33,0,0,1-.14,0v1.27l-.4,0a1.21,1.21,0,0,1-.4-.06A.31.31,0,0,0,84,70a.14.14,0,0,1-.08-.12l-.2.44H81a.76.76,0,0,0-.2.08.21.21,0,0,1-.12,0,.1.1,0,0,0-.08,0v.43l.12.1s.08.08.08.1a1.55,1.55,0,0,0,.34.08l.26,0v.88a0,0,0,0,0,0,0h.2l.22-.1a.46.46,0,0,0,.17-.1h.2l.16.1c.06,0,.08.07.08.1v1l.2.06a.37.37,0,0,1,.2.14v.16c0,.08-.07.23-.14.46a1.92,1.92,0,0,0-.1.41s0,.08.1.16a1.25,1.25,0,0,1,.14.2.5.5,0,0,0,.1.14.93.93,0,0,0,.1.1v.2l-.24.2c-.13.11-.2.19-.2.24v.79a1,1,0,0,1-.18.28c-.12.16-.19.27-.22.32v.4l.4-.16a1.33,1.33,0,0,0,.08.3,1,1,0,0,0,.16.3h.44l.39-.06a2.35,2.35,0,0,0,.4-.1.18.18,0,0,1,.06-.14.45.45,0,0,0,.1-.14.43.43,0,0,0,.16-.2.71.71,0,0,1,.12-.2.35.35,0,0,0,.06.14c0,.07.07.1.1.1h.64l.08.08.07.08.14,0,.14,0h.08a0,0,0,0,0,0,0q.09,0,.24-.18a1.29,1.29,0,0,1,.24-.22l.08,0a.1.1,0,0,1,.08,0l.32.22a1,1,0,0,0,.28.18.36.36,0,0,0,.21,0l.22,0,.12.22a.4.4,0,0,1,.08.22H89.4s.07-.06.12-.18a.64.64,0,0,0,.08-.26v-.8s0,.07.08.12.09.08.12.08a2.81,2.81,0,0,0,.32.24l.28.2a.44.44,0,0,0,.12.1.22.22,0,0,0,.12.06,1.3,1.3,0,0,0,.08.34,1.11,1.11,0,0,0,.11.29s.06.06.16.1a.66.66,0,0,1,.24.14v.2a.18.18,0,0,0-.1.06l-.1.1a1,1,0,0,0-.1.24c0,.13-.07.2-.1.2s-.11,0-.17,0a.42.42,0,0,0-.14-.08,1.73,1.73,0,0,1-.08.26.38.38,0,0,0,0,.3l.2.18a1,1,0,0,0,.23.17l-.21.14a.44.44,0,0,1-.22.1s-.12,0-.28,0l-.32,0a.83.83,0,0,0-.2.1.49.49,0,0,1-.2.1h-.83a2.6,2.6,0,0,0-.4.08l-.44.12-.38.16-.63.26-.64.26a1.53,1.53,0,0,0-.34.16,2.77,2.77,0,0,1-.43.1,1.9,1.9,0,0,0-.44.1,5.55,5.55,0,0,0-.66.19l-.54.2a.59.59,0,0,0-.23.24s-.06.08-.08.24a2,2,0,0,1-.08.32,3.33,3.33,0,0,1-.1.42c-.07.22-.12.36-.14.41l-.12.12c0,.06-.08.1-.08.12a.42.42,0,0,0,0,.2v.28s0,.14,0,.26,0,.2,0,.26a.42.42,0,0,1,.22.08l.22.12.59.59.16,0h.12a.09.09,0,0,0,.08,0s.07,0,.14-.08.11-.08.14-.08h.16a1.06,1.06,0,0,1,.26.12l.46.26.45.26.3.16a.59.59,0,0,0,.2.1c.11,0,.16.08.16.14s.1.12.16.3a1.74,1.74,0,0,1,.08.33,1,1,0,0,1,.18-.25q.14-.18.18-.18a.93.93,0,0,1,.43,0l.36.06.08-.28-.24-.24s-.16-.09-.32-.2a.78.78,0,0,0-.31-.16.55.55,0,0,1,.19-.18.67.67,0,0,1,.24-.1.51.51,0,0,1,.2.12,1.59,1.59,0,0,0,.24.16h.2l.26-.12a.78.78,0,0,0,.26-.16v.76a.48.48,0,0,0,.12.08.22.22,0,0,0,.2,0l.17-.24c.1-.13.17-.2.22-.2h.4a.14.14,0,0,1,.12.08.62.62,0,0,0,.08.12l-.1.1a.5.5,0,0,0-.1.14.53.53,0,0,0-.12.18.56.56,0,0,0-.08.18v.43l.2.2H90l.12-.12.12-.08a2.33,2.33,0,0,0,.08-.41.81.81,0,0,1,.08-.38c0-.06.1-.1.24-.14s.19-.07.19-.1a1.76,1.76,0,0,0,.12-.36A1.3,1.3,0,0,0,91,85.5h1.83L93.3,85H95c0,.05,0,.15,0,.29a.61.61,0,0,0,.12.3.71.71,0,0,0,.28.22,2,2,0,0,1,.32.22h.44s.06,0,.1.08.07.09.09.12,0,.11,0,.24,0,.2,0,.2l.3.06a.87.87,0,0,1,.3.1,2,2,0,0,1,.12.41,1.91,1.91,0,0,0,.12.42,1.24,1.24,0,0,0,.18.22l.22.22.2-.2a1.29,1.29,0,0,1-.22-.32,3.11,3.11,0,0,0-.22-.32v-.16a4.07,4.07,0,0,0,.14-.63,1.33,1.33,0,0,1,.1-.44l.2-.22.2-.22a.45.45,0,0,1,.15-.06l.2,0s0,.11,0,.24a1.38,1.38,0,0,1,0,.28s0,.06.06.1l.1.1h.28a5.34,5.34,0,0,1,.28-.48,4.15,4.15,0,0,1,.38-.52c.12-.13.2-.16.26-.09s0,.31-.12.73v1.23c.18-.18.32-.26.41-.23s.14.11.14.25a1.3,1.3,0,0,1-.16.56,2.49,2.49,0,0,1-.39.62,3.3,3.3,0,0,0-.1.42.85.85,0,0,1-.14.37,1.22,1.22,0,0,1-.18.24,3.22,3.22,0,0,1-.32.32l-.32.3-.18.18v.2h.44l-.44.83H96.76c0-.05-.06-.14-.18-.26s-.19-.18-.22-.18h-.79s-.13-.06-.24-.19-.17-.2-.2-.2h-.2v.91l-.4,0a3.5,3.5,0,0,0-.47,0,2.51,2.51,0,0,1-.54-.18l-.66-.26s-.06,0-.1-.08a.24.24,0,0,1-.06-.11s0-.06,0-.18,0-.2,0-.22-.09-.15-.27-.2a.31.31,0,0,1-.2-.1.38.38,0,0,0-.16-.1h-.24a2.18,2.18,0,0,1-.08.42,2.14,2.14,0,0,1-.12.38.35.35,0,0,0-.08.11c0,.06,0,.08-.08.08L91,91l-.37.2a.71.71,0,0,1-.12-.2,1.31,1.31,0,0,1-.12-.24.27.27,0,0,1-.08-.1l-.08-.09H90ZM78.5,68.8a.89.89,0,0,1,.16-.32,1.08,1.08,0,0,1,.24-.28.86.86,0,0,1,.14.4,1.33,1.33,0,0,0,.14.43l0,.24a.63.63,0,0,1-.32-.08,1,1,0,0,1-.24-.2A.71.71,0,0,1,78.5,68.8Zm1.2-1.4a.34.34,0,0,1,0-.16.51.51,0,0,0,0-.11c0,.05.18.15.39.31a3.94,3.94,0,0,1,.4.32,2.24,2.24,0,0,1,.12.3,1.33,1.33,0,0,1,.08.3v.32h-.16a0,0,0,0,1,0,0,.22.22,0,0,0-.06-.12l-.1-.16s-.07,0-.14-.16a.88.88,0,0,0-.14-.2s0-.1-.17-.22-.18-.19-.18-.22,0,0,0,0S79.7,67.46,79.7,67.4Zm.71,19.26q0-.12-.12-.12c-.1,0-.16,0-.16.12a.16.16,0,0,0,.14.08A.14.14,0,0,0,80.41,86.66Zm.36,3.26c-.1,0-.16.07-.16.2s.06.2.16.2.16-.07.16-.2S80.88,89.92,80.77,89.92Zm1-14.76c-.11,0-.16.07-.16.22s0,.22.16.22.15-.07.15-.22S81.91,75.16,81.81,75.16ZM83.67,67v-.24h-.23Zm-.23,1.63a.66.66,0,0,1,.12-.12.66.66,0,0,0,.11-.16V68a.57.57,0,0,0-.11-.1.27.27,0,0,1-.12-.14Zm1.07-3.94a.07.07,0,0,1,.08.08.14.14,0,0,1-.08.12c-.11,0-.16,0-.16-.06S84.4,64.7,84.51,64.7Zm.6,1.47c-.14,0-.2.06-.2.18s.06.18.2.18.16-.06.16-.18S85.21,66.17,85.11,66.17Zm3.06,20.49c-.11,0-.16.07-.16.22s0,.21.16.21.12-.07.12-.21S88.25,86.66,88.17,86.66Zm.16-7.4h.24V78.9h-.24Zm2.5-13.37a.23.23,0,0,0,.08.16.66.66,0,0,1,.12.12,1,1,0,0,0,.2-.28v-.16a.37.37,0,0,1,0-.12.11.11,0,0,0,0-.08H91a.44.44,0,0,1-.12.1.19.19,0,0,0-.08.14v.12Zm.4,13.37c.14,0,.2.07.2.22s-.06.22-.2.22-.16-.08-.16-.22S91.13,79.26,91.23,79.26Zm0-2s0-.09,0-.2a1.25,1.25,0,0,0,0-.24,2.82,2.82,0,0,1,.46.3l.38.3s.06.22.12.5.08.44.08.49l-.3,0a1,1,0,0,1-.34-.08,1.58,1.58,0,0,1-.1-.24.84.84,0,0,1-.06-.19l-.12-.08c-.08,0-.12-.06-.12-.08a.94.94,0,0,0,0-.22C91.2,77.36,91.19,77.28,91.19,77.23Zm.4-8.63a0,0,0,0,0,0,0s0,0,.08.08a.36.36,0,0,1,.12.08.48.48,0,0,0,.16-.18.59.59,0,0,0,.08-.26c0-.11-.08-.16-.24-.16s0,0-.06,0l-.06,0-.08.08,0,.16Zm.68-2.71s0-.08-.1-.08-.13,0-.1.08,0,.12.08.12S92.24,66,92.27,65.89Zm.16,10.7h-.16v-.2Zm0-7.4c.13,0,.19.08.19.22s-.06.22-.19.22-.12-.07-.12-.22S92.35,69.19,92.43,69.19Zm.43,7.6c.06,0,.08.06.08.1s0,.07-.08.1-.08,0-.08-.1S92.81,76.77,92.86,76.79Zm0,1a.25.25,0,0,1,.08.21.26.26,0,0,1-.08.22s-.08,0-.08-.22S92.81,77.8,92.86,77.83Zm.6-12.06c-.08,0-.12.07-.12.2s0,.2.12.2a.2.2,0,1,0,0-.4Zm.48,11s.08.07.08.22,0,.22-.08.22-.2-.07-.2-.22S93.81,76.79,93.94,76.79Zm0,13.92h.2a.26.26,0,0,0-.08-.19l-.12-.2Zm2.23-3.06s.06,0,.1-.1.07-.1.09-.1v0s0,0,0,0,0,0,0,0v-.08h-.23Zm.19,2.07c-.1,0-.15.07-.15.2s.05.2.15.2.16-.07.16-.2S96.47,89.72,96.36,89.72Zm.4-4.3a.1.1,0,0,1,0,.16c-.05.06-.12.06-.2,0s-.07-.07,0-.14S96.74,85.37,96.76,85.42Zm-.2-17.06A2,2,0,0,0,97,68.1a1.72,1.72,0,0,0,.38-.34.16.16,0,0,0,.14-.08l.1-.12c.05,0,.1-.1.14-.22a1.25,1.25,0,0,0,.06-.21,2.81,2.81,0,0,0-.24-.36c-.06-.11-.11-.21-.16-.32a.37.37,0,0,1,0-.28c-.37.16-.45.15-.24,0a4.9,4.9,0,0,1,.88-.54l-.64-.27s0,0,.2-.08a1.34,1.34,0,0,0,.24-.12.75.75,0,0,1,.18-.32c.11-.16.19-.25.21-.28a1.31,1.31,0,0,1,0-.22.69.69,0,0,0,0-.22h.6v.16l-.16.32a.92.92,0,0,0-.12.32c0,.1.09.18.28.24H99l.1-.1a.71.71,0,0,0,.1-.14.75.75,0,0,1,.12-.2.44.44,0,0,0,.08-.16l.12.16c0,.08.09.14.12.2s0,.24.16.24a1.1,1.1,0,0,0,.33-.12l.3-.12a.72.72,0,0,0,.08.24.92.92,0,0,0,.12.2H101a4.35,4.35,0,0,0,.46-.24,1.2,1.2,0,0,1,.41-.2l.64.3a2.32,2.32,0,0,1,.6.33h-1a3.94,3.94,0,0,1,0,.42c0,.2,0,.41-.06.62s-.05.41-.08.59,0,.32,0,.4a1,1,0,0,0-.1.22c0,.12-.08.19-.14.22s0-.06-.07-.1a.15.15,0,0,1-.08-.14s0-.12,0-.3,0-.28,0-.33a1.12,1.12,0,0,1-.12-.36,1.83,1.83,0,0,1-.08-.4,2.36,2.36,0,0,1-.12-.26.53.53,0,0,0-.16-.22h-.12a1.85,1.85,0,0,0-.1.34.51.51,0,0,1-.14.3,3.26,3.26,0,0,1-.3.34c-.17.17-.27.26-.3.26V68l.1.12s.08.08.1.08a.71.71,0,0,1-.2.22,2.58,2.58,0,0,0-.23.22h-.16a.87.87,0,0,0-.22-.24c-.12-.11-.2-.17-.22-.2l-.2.06c-.11,0-.16.07-.16.1a2.09,2.09,0,0,0-.24.34l-.2.33h-.24s-.06,0-.1-.11S98,68.8,98,68.8a.91.91,0,0,0-.42,0,1,1,0,0,1-.38,0l-.2,0a.54.54,0,0,1-.24-.12.66.66,0,0,0-.12-.12A.27.27,0,0,1,96.56,68.36Zm.4-1.83s-.08,0-.08.14,0,.12.08.1.12-.07.12-.12S97,66.56,97,66.53Zm.4,18.89c.13,0,.2.08.2.22s-.07.22-.2.22-.12-.07-.12-.22S97.28,85.42,97.36,85.42Zm.83-18.29a.35.35,0,0,0,.1.13l.14.14c0-.05.1-.18.2-.39l.24-.48v-.16l-.14-.1-.14-.1s-.08.19-.18.4a2.48,2.48,0,0,1-.22.44v.12Zm.24,20.52.16-.2-.16-.2Zm.6,0,.2-.2-.36.28Zm.64,2.07c.08,0,.12.07.12.2s0,.2-.12.2a.2.2,0,0,1,0-.4Zm.79-3.7a.55.55,0,0,0-.1-.2.55.55,0,0,1-.1-.24,1.64,1.64,0,0,1-.06-.32c0-.15,0-.26,0-.31l.42,0,.42,0a.66.66,0,0,0,.22-.06c.09,0,.14,0,.14,0,.1.29.06.47-.14.55s-.31.11-.34.08l0,.12,0,.16.44.24a.91.91,0,0,1,.31.18,1.5,1.5,0,0,1,.16.14,1.38,1.38,0,0,0-.27.16l-.24.16v.08a1.76,1.76,0,0,1-.14.27c-.07.11-.12.16-.14.16a.93.93,0,0,1-.3-.08l-.26-.08Zm.2-18.89a.18.18,0,0,1,.2.21c0,.15-.07.22-.2.22s-.16-.07-.16-.22S100.55,67.13,100.66,67.13Zm.36-.6c.13,0,.2.08.2.24s-.07.24-.2.24-.08-.08-.08-.24S101,66.53,101,66.53Zm1.71,17.82v.12a.34.34,0,0,1,0,.16l-.08.16s0,.06,0,.12a.12.12,0,0,1,0,.08v1a1.34,1.34,0,0,1-.2.24,1.12,1.12,0,0,1-.24.2,1.88,1.88,0,0,0-.06-.38c0-.17-.08-.36-.14-.56s-.1-.38-.14-.55a1.44,1.44,0,0,0-.1-.34v-.28Z" transform="translate(-27.36 -58.25)"/><path class="cls-1" d="M128.62,70.94a1,1,0,0,0-.53.14c-.15.1-.22.3-.22.62h-.16a.22.22,0,0,0-.06-.12.19.19,0,0,0-.14-.08l0,0a.57.57,0,0,0-.64.64.14.14,0,0,0,0,.06s0,0,0,.06a.64.64,0,0,1,.5-.22l.54,0v.24a1.92,1.92,0,0,1-.08.24.62.62,0,0,1-.12.23v.16a2.42,2.42,0,0,1,.28.24,1.78,1.78,0,0,1,.24.28v.2s0,0,0,0a1,1,0,0,1-.12.46,3.89,3.89,0,0,0-.24.53l-.4-.27s0,.09,0,.19,0,.19,0,.24a.46.46,0,0,0,.1.34.37.37,0,0,0,.22.12.75.75,0,0,1,.24.08.51.51,0,0,1,.2.26.14.14,0,0,1-.08.12.23.23,0,0,0-.12.08,1.3,1.3,0,0,0-.52,1.11.83.83,0,0,0,.08.2.34.34,0,0,0,.12.12v.08a.24.24,0,0,0,0,.08.24.24,0,0,1,0,.08.65.65,0,0,1-.3.61.59.59,0,0,0-.3.54,1.28,1.28,0,0,0,.22.72,1.25,1.25,0,0,1,.22.75,1.09,1.09,0,0,1,0,.26,1.12,1.12,0,0,0,0,.22,3.36,3.36,0,0,1-.06.54l-.12.65-.1.56c0,.16,0,.24-.08.24h-.43V84c.18,0,.31.11.39.34a2.1,2.1,0,0,1,.12.7.42.42,0,0,0,0,.15.21.21,0,0,0,0,.12v0a1.76,1.76,0,0,0-.12-.23c0-.11-.1-.18-.16-.2s0,0-.11,0a2.7,2.7,0,0,0,.07.63.43.43,0,0,0,.48.32c0,.24,0,.6,0,1.09a9.12,9.12,0,0,1,0,1.48,4.57,4.57,0,0,1-.32,1.31.85.85,0,0,1-.83.58v-.44H126l-.4.79a3.25,3.25,0,0,0-.85-.45,2.91,2.91,0,0,0-1-.18,1.57,1.57,0,0,0-.62.2,2.37,2.37,0,0,0-.65.43,2.72,2.72,0,0,0,0-.51,1.58,1.58,0,0,0,0-.44s-.06-.09-.16-.18-.21-.19-.32-.3a3.47,3.47,0,0,0-.48-.36s-.14.08-.27.22-.23.22-.28.22-.09,0-.18-.16a.41.41,0,0,1-.14-.28l.32-.16V87.65h-.48v-.36a1.69,1.69,0,0,0-.42,0,.77.77,0,0,1-.3,0,.24.24,0,0,1-.22-.1.72.72,0,0,1-.09-.2,1.54,1.54,0,0,1-.08-.19.15.15,0,0,0-.16-.1c-.16,0-.27.16-.32.47a4,4,0,0,0-.08.6s-.1-.07-.14-.2a1.08,1.08,0,0,1-.06-.28v-2a.17.17,0,0,0-.16-.18,1.88,1.88,0,0,1-.36-.07.79.79,0,0,1-.38-.3,1.77,1.77,0,0,1-.21-.88h-.08V85.7l-.2.16a4,4,0,0,1-.42-.7,1.73,1.73,0,0,1-.14-.73,1,1,0,0,1,.18-.5,5.65,5.65,0,0,1,.38-.57,4.24,4.24,0,0,1,.38-.48c.11-.13.16-.21.14-.24l-.76-.8v1.32q-.31,0-.36.21a.68.68,0,0,1-.32.42l-.28-.4v-1.9c0-.14-.07-.2-.21-.2h-.3a1.2,1.2,0,0,0-.66.16c-.17.1-.19.38-.06.83l-.67-.28v-.08a1.06,1.06,0,0,1,.35-.73,3.59,3.59,0,0,0,.52-.66.68.68,0,0,0-.28-.28,2.55,2.55,0,0,0-.44-.2,3.67,3.67,0,0,1-.47-.2.79.79,0,0,1-.36-.31v1c-.24-.21-.5-.46-.78-.74s-.52-.53-.73-.77l-.32.36-.2.06a.59.59,0,0,0-.2.1L110.45,82v.32a1,1,0,0,0,.1.5,1.23,1.23,0,0,1,.1.54.75.75,0,0,1-.1.41,4.23,4.23,0,0,1-.42.46c.05.77.14,1.52.26,2.25a14.06,14.06,0,0,1,.17,2.28,8.23,8.23,0,0,1-.13,1.64,2.18,2.18,0,0,1-.86,1.19v-.16l.32-.52s0-.08,0-.18,0-.15,0-.18a.68.68,0,0,1-.4-.07c0-.06-.16-.08-.32-.08a0,0,0,0,1,0,0,.12.12,0,0,1-.08,0,5.92,5.92,0,0,1-.18,1.17c-.09.38-.39.58-.89.58h-.12a4.8,4.8,0,0,0-.34-.8l-.34-.58a2.44,2.44,0,0,1-.25-.59,3.19,3.19,0,0,1-.1-.9,2.46,2.46,0,0,1,.11-.81,2,2,0,0,0,.12-.74,5.47,5.47,0,0,0-.27-1.65,5.45,5.45,0,0,1-.28-1.73,2,2,0,0,1,.12-.74,2,2,0,0,0,.12-.73c0-.29,0-.69,0-1.18s-.07-1-.12-1.49-.12-1-.18-1.39a2.43,2.43,0,0,0-.26-.88h.32a1.21,1.21,0,0,0-.16-.59,1.24,1.24,0,0,1-.16-.64c0-.16.07-.23.2-.22s.2-.08.2-.3a.57.57,0,0,0-.2-.49.7.7,0,0,1-.2-.58,1.85,1.85,0,0,1,.12-.64,1.76,1.76,0,0,0,.12-.63.34.34,0,0,0-.28-.36.71.71,0,0,1-.44-.4,4.68,4.68,0,0,0-.22-1.29,3.8,3.8,0,0,1-.18-1.21c0-.16,0-.26.1-.3a.64.64,0,0,1,.2-.08.7.7,0,0,0,.2-.08c.07,0,.1-.13.1-.26v-.16a.55.55,0,0,0-.1-.2.68.68,0,0,1-.1-.2,2.33,2.33,0,0,1,.12-.34l.26-.59a5.84,5.84,0,0,1,.28-.56c.09-.17.15-.26.18-.26a.68.68,0,0,1,.24.36c0,.13.14.2.35.2a1.24,1.24,0,0,0,.82-.28,1.22,1.22,0,0,1,.78-.28h.35c-.08,0-.12.07-.12.2a.87.87,0,0,0,.1.46,1,1,0,0,0,.24.22,1.08,1.08,0,0,1,.24.18.44.44,0,0,1,.1.33.41.41,0,0,1-.16.36c0,.11,0,.16.12.16l.16-.08.16-.08.14,0c.06,0,.1.07.1.12l.16.76a.38.38,0,0,0,.29.28,1.11,1.11,0,0,1,.46.21,1.47,1.47,0,0,1,.42.68,5.33,5.33,0,0,1,.18,1.65.22.22,0,0,0,.22-.14,1.36,1.36,0,0,0,.08-.32,1.61,1.61,0,0,1,.06-.33c0-.11.1-.16.24-.16s.16.08.23.24a5,5,0,0,1,.24.55,6.31,6.31,0,0,1,.2.62A2.18,2.18,0,0,1,113,74a.94.94,0,0,1,.4,0,1.75,1.75,0,0,1,.54.12,1.2,1.2,0,0,1,.45.29.65.65,0,0,1,.2.48l-.08.08-.08.08s0,0,0,.08v.32a1.86,1.86,0,0,1,.78.1.42.42,0,0,1,.22.32c0,.14,0,.33.06.55a1.6,1.6,0,0,0,.3.78.87.87,0,0,1,.83.28,4.12,4.12,0,0,1,.86,1,6,6,0,0,1,.59,1.26,1.57,1.57,0,0,1,.1,1l.36-.44a3.07,3.07,0,0,1,.48.52,6.53,6.53,0,0,1,.46.7c.14.25.27.49.37.71a2,2,0,0,1,.2.58.73.73,0,0,1,.64,0,1.69,1.69,0,0,1,.42.38l.35.43a.7.7,0,0,0,.5.26v-.12a1.25,1.25,0,0,1,0-.32,1.72,1.72,0,0,0,0-.39c0-.14,0-.28-.08-.44h-.24a.94.94,0,0,1,.1-.28c.07-.13.16-.27.26-.42a4.46,4.46,0,0,1,.32-.39,1,1,0,0,1,.24-.22V79.54a.46.46,0,0,1,.06-.16.49.49,0,0,0,.06-.2c0-.05,0-.18,0-.38a2.45,2.45,0,0,0-.08-.38V78c0-.45,0-.87.06-1.27s.06-.82.06-1.27v-.2s0-.21,0-.48a2.67,2.67,0,0,0-.08-.47.11.11,0,0,1,.12-.12,1,1,0,0,1,.22,0,.35.35,0,0,1,.22.1.91.91,0,0,0,.14-.36c0-.19.07-.39.09-.6s.05-.42.06-.62a4.23,4.23,0,0,0,0-.45v-.08a2.47,2.47,0,0,0-.47-.5.88.88,0,0,1-.28-.74.25.25,0,0,1,.1-.2.89.89,0,0,1,.24-.13,1,1,0,0,0,.24-.16.51.51,0,0,0,.09-.34h.52q0-.84-.06-1.59c0-.51-.06-1-.06-1.51v-.16l.16-.56c.13,0,.23.21.28.48s.08.42.08.47h.32a3.85,3.85,0,0,0-.16-1.07,3.47,3.47,0,0,1-.16-1.07.71.71,0,0,1,.26-.64,1.18,1.18,0,0,1,.65-.16c.22,0,.36.07.42.2a1.48,1.48,0,0,1,.14.42c0,.14.05.28.08.41s.09.2.2.2v1.71s.09.12.26.26a3.3,3.3,0,0,0,.38.3h0c.26,0,.43-.06.49-.18a.77.77,0,0,0,.1-.4v-.43a.37.37,0,0,1,.24-.34l.08,0,0,0a1.76,1.76,0,0,1,.12.36c.05.18.11.38.18.59a3.58,3.58,0,0,0,.24.6,1,1,0,0,0,.3.4l-1,1.11V70a1.62,1.62,0,0,0,.5.22,2.37,2.37,0,0,0,.58.14ZM107,79.78s-.08,0-.08,0,0,.1.08.1S107.13,79.78,107,79.78Zm.16,10.5c-.05,0-.08,0-.08.08s0,.12.08.12S107.24,90.28,107.18,90.28Zm.36-20.89c-.05,0-.08,0-.08.06s0,.1.08.1a.11.11,0,0,0,.08-.1S107.59,69.39,107.54,69.39Zm2.59,19.18c-.14,0-.2.06-.2.17s.06.18.2.18.12-.06.12-.18S110.21,88.57,110.13,88.57Zm0-6.57a.4.4,0,0,0,.2-.36h-.2Zm.43-2.62c.06-.06,0-.08,0-.08s-.1,0-.1.08,0,.08.07.08S110.56,79.43,110.56,79.38Zm0,1.35h.24v-.44h-.24Zm.36-3.3h.2v-.24Zm0,1.07v.28c0,.08.07.16.2.24V78c-.13,0-.2.1-.2.2Zm1.39-.32a2.71,2.71,0,0,0,.1.64.44.44,0,0,0,.46.36c.08,0,.12-.05.12-.16a3.55,3.55,0,0,0-.14-.76c-.09-.34-.2-.54-.34-.59a2.45,2.45,0,0,0-.16.24A.76.76,0,0,0,112.31,78.18Zm.56-1.91c-.05,0-.08,0-.08.08s0,.12.08.12,0-.06,0-.12S112.9,76.27,112.87,76.27Zm0-1.15.12.16v-.52s0,0-.08.08a.79.79,0,0,0,0,.12v.16Zm1.32,4.26v-.2H114Zm.87.16s-.08,0-.08.1,0,.14.08.14a.16.16,0,0,0,.08-.14C115.14,79.57,115.11,79.54,115.06,79.54Zm2.23,1.55c-.14,0-.2.06-.2.2a.18.18,0,0,0,.2.2c.1,0,.16-.07.16-.2S117.39,81.09,117.29,81.09Zm0-.56c-.06,0-.08,0-.08.08s0,.12.08.12S117.42,80.53,117.29,80.53Zm.52,1.11c-.14,0-.2.06-.2.18s.06.18.2.18.11-.06.11-.18S117.88,81.64,117.81,81.64ZM119.48,83a1.54,1.54,0,0,0-.34.24.51.51,0,0,0-.26.39h.6Zm2.58,6h.16v-.55h-.16Zm.92.6.12,0,.27-.12H123Zm.12-11.1c-.06,0-.08.06-.08.16s0,.16.08.16.15,0,.15-.16A.14.14,0,0,0,123.1,78.42Zm.67-6c-.08,0-.12.06-.12.19s0,.2.12.2.12-.06.12-.2S123.85,72.46,123.77,72.46Zm0,12.29q-.12,0-.12.18t.12.18.12-.18Q123.89,84.75,123.77,84.75Zm0,3.94a1.1,1.1,0,0,0,.14.67c.09.11.28.16.58.16a1.23,1.23,0,0,0-.16-.56A.6.6,0,0,0,123.81,88.69Zm.32-7.6c-.11,0-.16.06-.16.2s0,.2.16.2.16-.07.16-.2S124.23,81.09,124.13,81.09Zm.2-3.07c-.11,0-.16.07-.16.2s0,.2.16.2.08-.06.08-.2S124.38,78,124.33,78Zm.83,11.46c-.1,0-.16.07-.16.22s.06.22.16.22.08-.07.08-.22S125.22,89.48,125.16,89.48Zm0-13.92s-.08,0-.08.06,0,.14.08.14a.16.16,0,0,0,0-.12S125.19,75.56,125.16,75.56Zm.12-10s-.08.07-.08.2,0,.2.08.2.2-.06.2-.2A.18.18,0,0,0,125.28,65.57Zm.24,11.3h.28l-.16-.16Zm.12.8s-.08.06-.08.18,0,.17.08.17.12,0,.12-.17S125.72,77.67,125.64,77.67Zm0,.75.16-.24h-.16Zm.52-5.25c-.06,0-.08.08-.08.24s0,.24.08.24.16-.08.16-.24S126.26,73.17,126.16,73.17Zm.83,2.59s-.08,0-.08.16,0,.16.08.16.12-.06.12-.16S127.07,75.76,127,75.76Zm.16-2.11c.06-.05,0-.08,0-.08s-.12,0-.12.08.06.08.1.08S127.15,73.7,127.15,73.65Zm0,6.13c-.05-.06-.08,0-.08.15s0,.23.08.2a.24.24,0,0,0,.12-.22C127.27,79.82,127.23,79.78,127.15,79.78Zm0-10.75a.89.89,0,0,0,.48-.83h-.48Zm0,3.82h.24l-.24-.16Z" transform="translate(-27.36 -58.25)"/><path class="cls-1" d="M140.55,91.27a1,1,0,0,0-.41.08,1.22,1.22,0,0,1-.46.08.39.39,0,0,1-.36-.26,2.4,2.4,0,0,1-.18-.62,5.75,5.75,0,0,1-.08-.75c0-.27,0-.5,0-.72,0-.5,0-.93,0-1.27s.07-.8.12-1.35c.21-.21.32-.36.32-.44a2.05,2.05,0,0,0-.48-.48.12.12,0,0,0,0-.08l.34,0a.38.38,0,0,0,.34-.18,1.32,1.32,0,0,1-.54-.85,5.33,5.33,0,0,1-.1-1,8.54,8.54,0,0,1,.14-1.61,3.63,3.63,0,0,1,.7-1.45.26.26,0,0,1-.08-.14c0-.06-.07-.1-.12-.1v0h0s0,0,0,0,0,0,0,0a.55.55,0,0,0-.36.2,5.73,5.73,0,0,1-.2-.81,5.84,5.84,0,0,1-.12-1.1.84.84,0,0,1,.18-.61.88.88,0,0,1,.4-.24,3.89,3.89,0,0,1,.4-.1c.12,0,.18-.09.18-.2s-.09-.17-.26-.18-.26-.11-.26-.3a.31.31,0,0,1,0-.2l.1-.08a.53.53,0,0,0,.12-.1.36.36,0,0,0,.06-.25c0-.43,0-.67.08-.72a.41.41,0,0,0,.08-.28,3.51,3.51,0,0,1-.68-.6,1.68,1.68,0,0,1-.34-.59,3,3,0,0,1-.12-.7c0-.25,0-.55,0-.89a3.06,3.06,0,0,1,0-.56,3.13,3.13,0,0,0,0-.56.69.69,0,0,0-.18-.53.89.89,0,0,0-.42-.24,1.8,1.8,0,0,0-.45-.06c-.15,0-.23,0-.26,0s-.35.06-.74.1l-1.25.14-1.25.13-.74.06a1.29,1.29,0,0,1-.6-.29,1.66,1.66,0,0,1-.47-.46l-.08.83a5.34,5.34,0,0,1-1,.1c-.39,0-1.12,0-2.18,0l.63-.28a1.9,1.9,0,0,1-.75-.15.6.6,0,0,1-.36-.6.18.18,0,0,1,.2-.2l.16,0,.15,0a.46.46,0,0,0,.34-.14c.1-.09.14-.31.14-.66a2.49,2.49,0,0,0-.06-.59c0-.16-.08-.39-.14-.68l-.31.16v-.6s-.08-.09-.24-.2a.86.86,0,0,0-.24-.11l.32-.16a.3.3,0,0,1,0-.12,1,1,0,0,0,0-.16,1.6,1.6,0,0,0-.1-.56,1.07,1.07,0,0,1-.1-.44.53.53,0,0,1,.12-.25c.08-.12.14-.18.2-.18l1.43-.12c0,.26.06.43.2.49a1.08,1.08,0,0,0,.51.1.82.82,0,0,0,0-.24.77.77,0,0,1,0-.15c0-.14.15-.26.44-.36a.84.84,0,0,1,.16.26.25.25,0,0,0,.24.18.26.26,0,0,0,.26-.16.83.83,0,0,0,.06-.28h.75l-.08.32a2,2,0,0,0-.14.25.52.52,0,0,1-.14.22.8.8,0,0,0,.56-.14c.11-.09.24-.21.4-.37.13,0,.2.17.2.43a.45.45,0,0,1-.1.28.47.47,0,0,0-.1.32,1.33,1.33,0,0,0,.08.3,1.43,1.43,0,0,1,.08.26c.16,0,.26,0,.3-.1a.61.61,0,0,0,.06-.3,1.94,1.94,0,0,0,0-.24.23.23,0,0,0-.18-.16c.21,0,.34,0,.4-.1a.34.34,0,0,0,.07-.22.25.25,0,0,0,0-.08.11.11,0,0,1,0-.08c0-.15.09-.23.27-.23s.14.08.26.23a1,1,0,0,0,.34.32.61.61,0,0,0,.22-.06.59.59,0,0,1,.18-.06c.05,0,.08.06.1.18s0,.25,0,.4a1.64,1.64,0,0,0,0,.4q0,.18.12.18l.79-.76.58-.52c.17-.16.28-.23.34-.23a.28.28,0,0,1,.3.21,1.69,1.69,0,0,1,0,.52,4.44,4.44,0,0,1-.08.56,2.32,2.32,0,0,0-.06.3l.53-.48.54-.48a.78.78,0,0,0,.38-.42,1.48,1.48,0,0,0,.1-.49.44.44,0,0,1,.22.26,3.15,3.15,0,0,1,.1.39,1.6,1.6,0,0,0,.1.38.21.21,0,0,0,.21.16,1.89,1.89,0,0,0,.32,0,1.28,1.28,0,0,0,.32-.08,1.59,1.59,0,0,1-.08-.18.58.58,0,0,0-.08-.14l0,0a2.56,2.56,0,0,1,.14-.34,2.28,2.28,0,0,1,.3-.49s0,0,.12.06.12,0,.12.1a2.24,2.24,0,0,1,0,.43,1.78,1.78,0,0,0,0,.44.34.34,0,0,0,.34-.2.37.37,0,0,1,.37-.2l.08,0h.08a1.48,1.48,0,0,0-.16.44.88.88,0,0,0,0,.16,1,1,0,0,1,0,.28.78.78,0,0,0,.54-.2,1.38,1.38,0,0,0,.34-.46,2.53,2.53,0,0,0,.18-.55,2.78,2.78,0,0,0,.06-.54,2.72,2.72,0,0,0-.16-1.1c-.11-.19-.45-.29-1-.29q0-.16.06-.18a.81.81,0,0,1,.24,0l.46-.08a4.07,4.07,0,0,0,.72-.26h.14c.11,0,.17,0,.17.12l-.15.2V64.9a.14.14,0,0,0,.15.16q.52,0,.6-.36a3.31,3.31,0,0,0,.08-.68c0-.26-.07-.43-.2-.49a.44.44,0,0,1-.2-.42,1.58,1.58,0,0,1,.84.26,6.4,6.4,0,0,1,.63.41.41.41,0,0,1,0,.16,1.12,1.12,0,0,0,0,.2c0,.19,0,.39,0,.62s.06.44.1.65a1.71,1.71,0,0,0,.18.54c.08.15.18.22.28.22a1.24,1.24,0,0,0,.46-.1.37.37,0,0,0,.26-.38V64.38l-.16,0-.16,0c-.21,0-.32-.08-.32-.24a1.85,1.85,0,0,0,.6-.46,1.19,1.19,0,0,0,.2-.41,3.14,3.14,0,0,1,.06-.32q0-.12.18-.12a1.33,1.33,0,0,1,.45.08c.15,0,.22.18.22.4h-.44l.16.63a1.4,1.4,0,0,1,.22-.26l.48-.45a5.87,5.87,0,0,1,.5-.42,1.3,1.3,0,0,1,.27-.18v1.19a1.4,1.4,0,0,0,.7-.33,1.43,1.43,0,0,1,.82-.34.85.85,0,0,1,.45.16.41.41,0,0,1,.26.35c0,.19-.12.36-.38.5a1.25,1.25,0,0,1-.57.22.35.35,0,0,1-.18-.06l-.14-.1a.74.74,0,0,1,0,.12,1,1,0,0,0,0,.2c0,.21.07.32.2.32a.38.38,0,0,0,.18-.06l.14-.1a1.07,1.07,0,0,0-.08.36q0,.39.48.39c.29,0,.43-.1.43-.31s-.06-.2-.18-.18-.18,0-.18-.18.06-.16.18-.24.25-.16.4-.24a2.3,2.3,0,0,0,.4-.26.38.38,0,0,0,.18-.3.3.3,0,0,0-.1-.21.3.3,0,0,1-.1-.22q0-.12.24-.18a1.68,1.68,0,0,1,.4-.06,2.44,2.44,0,0,1-.2,1,1.23,1.23,0,0,1-.76.66A1.12,1.12,0,0,1,152,65a.5.5,0,0,0,.34.18s.13-.06.24-.16.18-.16.23-.16c.22,0,.36.14.44.42a2.73,2.73,0,0,1,.12.77.36.36,0,0,0,.2.34,2.21,2.21,0,0,0,.46.18,1.24,1.24,0,0,1,.46.26.69.69,0,0,1,.19.53,1.2,1.2,0,0,1-.06.5c0,.07-.24.1-.61.1a.67.67,0,0,1-.38-.08.42.42,0,0,0-.26-.08,1.75,1.75,0,0,0-.67.3,1.31,1.31,0,0,1-.76.22V68l-.38.06-.75.14-.8.16a2.41,2.41,0,0,0-.46.12.36.36,0,0,0-.16.08.44.44,0,0,1-.16.08.67.67,0,0,1-.47-.18.72.72,0,0,0-.48-.18.38.38,0,0,0-.4.34c0,.22-.17.34-.36.34s-.14-.07-.18-.2a.42.42,0,0,0-.21-.28,1.17,1.17,0,0,0-.48.71h-1.43L145,69a.66.66,0,0,0-.18-.09c-.16,0-.35.15-.56.47a1.58,1.58,0,0,0-.32.72,2.41,2.41,0,0,0,.1.67,2.5,2.5,0,0,1,.1.76,2.79,2.79,0,0,1-.12.88,2.55,2.55,0,0,0-.12.83,1.49,1.49,0,0,0,0,.36l-.25.14-.38.22a5,5,0,0,0-.48.32.51.51,0,0,0,.08.21.86.86,0,0,1,.08.18v0l.18-.08a.24.24,0,0,0,.14-.12v.16s0,0,0,0a.66.66,0,0,1-.16.4,3.06,3.06,0,0,1-.36.36,1.34,1.34,0,0,1,.24.12c.16.1.24.17.24.2a1.9,1.9,0,0,1-.12.36,1,1,0,0,0-.12.35c0,.14,0,.26-.08.36l.1.12a.17.17,0,0,0,.14.08.26.26,0,0,0,.24-.16,1.7,1.7,0,0,0,.12-.34,2.91,2.91,0,0,0,0-.49.21.21,0,0,1,.17.21c0,.12,0,.26,0,.4l.06.46a.58.58,0,0,0,.2.36L144,78.86a.09.09,0,0,1-.08,0c-.1,0-.22-.09-.35-.26s-.26-.26-.36-.26,0,0,0,0,0,0,0,0h0a2.58,2.58,0,0,0,.28,1.14,1.31,1.31,0,0,0,.95.73.41.41,0,0,0,.22-.1.5.5,0,0,1,.26-.1,3.64,3.64,0,0,0-.32.4c-.13.19-.27.38-.42.58a4.78,4.78,0,0,1-.41.51c-.14.15-.23.22-.28.22v1.12a.31.31,0,0,0-.2.1.24.24,0,0,0-.12.18,1.07,1.07,0,0,0,.32.69.87.87,0,0,0,.63.38.49.49,0,0,0,.22-.08.56.56,0,0,1,.26-.08l-1.11,1.15a.59.59,0,0,0-.2,0,.3.3,0,0,0-.28.14,1.52,1.52,0,0,0-.12.36c0,.15-.05.29-.08.42a1.07,1.07,0,0,1-.12.32,4.26,4.26,0,0,0,0,.51c0,.24,0,.5.06.76s0,.51,0,.74,0,.39,0,.49a.38.38,0,0,0,.06.26.53.53,0,0,0,.12.1l.12.1a.39.39,0,0,1,.06.26,1,1,0,0,1-.16.4,5.64,5.64,0,0,1-.38.57c-.14.2-.29.4-.44.58a1.51,1.51,0,0,1-.33.36.43.43,0,0,1,.35.24.22.22,0,0,1-.1.16l-.17.12a.4.4,0,0,1-.32-.14,3.45,3.45,0,0,0-.26-.28c-.09-.09-.19-.19-.3-.28A.61.61,0,0,0,140.55,91.27ZM129.41,65.49c0,.22.1.32.28.32s.28-.1.28-.32Zm.4,1.83,1.24.12L130.89,66Zm.44,1.6.16-.2L130,68Zm.64.71c-.14,0-.26.11-.38.34l-.26.46a.86.86,0,0,0,.81,0C131.24,70.29,131.18,70,130.89,69.63Zm-.16-2c-.08,0-.12.06-.12.16a1.67,1.67,0,0,0,.14.44c.09.24.16.36.22.36s.12-.1.19-.3a1.54,1.54,0,0,0,.12-.38s-.08-.11-.23-.18A1.42,1.42,0,0,0,130.73,67.64Zm1-1,.2-.06a2.06,2.06,0,0,0,.34-.16l.34-.18a.92.92,0,0,0,.2-.12s-.05-.06-.14-.1l-.32-.1a3.53,3.53,0,0,1-.46-.12l-.08,0Zm.24.44q-.12,0-.12.15c0,.11,0,.16.12.16s.12,0,.12-.16S132.08,67.05,132,67.05Zm.16.19c-.08,0-.12.06-.12.16a1.31,1.31,0,0,0,.1.3c.07.17.13.26.18.26s.06-.09,0-.26a2.32,2.32,0,0,1-.06-.3C132.28,67.3,132.24,67.24,132.16,67.24Zm.64,2.63H133v-.16h-.15Zm.31-2.23c.11,0,.17,0,.18.1a.45.45,0,0,1,0,.14,1.83,1.83,0,0,0,0-.28.24.24,0,0,0-.18-.24l-.16.16Zm.16,1.43.16-.15h-.16Zm1.4-1.63c-.06,0-.16.12-.32.36a1.48,1.48,0,0,0-.24.44,1.09,1.09,0,0,0,.62-.1.77.77,0,0,0,.09-.46.43.43,0,0,0,0-.14A.13.13,0,0,0,134.67,67.44Zm.35-.83c-.08,0-.12,0-.12.16a.12.12,0,0,0,.24,0C135.14,66.66,135.1,66.61,135,66.61Zm.16,1.27a.15.15,0,0,0,.06.18.64.64,0,0,1,.14.1.1.1,0,0,1,0-.08.46.46,0,0,0-.06-.16.19.19,0,0,0-.18-.12Zm1.63-.36c-.08,0-.12.06-.12.16s0,.16.12.16.12,0,.12-.16S136.89,67.52,136.81,67.52Zm.32-1.55h.16l-.16.16Zm3.14,16.63a1.25,1.25,0,0,0-.65.18.65.65,0,0,0-.3.61,1.18,1.18,0,0,0,.66-.19A.7.7,0,0,0,140.27,82.6Zm-.75-11.82s0,0-.08,0-.08,0-.08,0,0,.08.08.08S139.52,70.84,139.52,70.78Zm0,13.21c-.05,0-.08,0-.08,0a.07.07,0,0,0,.08.08,0,0,0,0,0,0,0S139.54,84,139.52,84Zm.16-2.19c-.08,0-.12.06-.12.16s0,.16.12.16.12-.05.12-.16S139.76,81.8,139.68,81.8Zm.47-7.32c-.05,0-.07,0-.07.08s0,.12.07.12,0,0,0-.12S140.18,74.48,140.15,74.48Zm.16,1c-.08,0-.12,0-.12.16s0,.16.12.16.12-.06.12-.16S140.39,75.44,140.31,75.44Zm0-8.55h.16v-.12h-.16Zm.16,13.76a.26.26,0,0,0,.24-.14.49.49,0,0,0,.08-.22h-.32Zm2.39-13.76c-.05,0-.16.12-.32.35a1.48,1.48,0,0,0-.24.44c.35,0,.55,0,.62-.1a.72.72,0,0,0,.1-.45.33.33,0,0,0,0-.14C143,66.92,142.91,66.89,142.86,66.89ZM142.7,68c-.08,0-.12.05-.12.16s0,.16.12.16.12,0,.12-.16S142.78,68,142.7,68Zm0,14.6h.16v-.12h-.16Zm.16-1.71a.08.08,0,0,0,0,.16s0,0,0-.08S142.89,80.85,142.86,80.85Zm.48-.28c-.08,0-.12.05-.12.16a.12.12,0,1,0,.24,0C143.46,80.62,143.42,80.57,143.34,80.57Zm.16-9.63h.19a.35.35,0,0,0-.19-.31Zm.16-1.07h.15l-.15-.16Zm.31-2.51c-.08,0-.14.11-.18.32a3,3,0,0,0-.06.52c.4,0,.6-.19.6-.56a.32.32,0,0,0-.06-.22A.47.47,0,0,0,144,67.36Zm0-2.1c0,.29.12.43.36.43a.3.3,0,0,0,.32-.2.35.35,0,0,0-.34-.21Zm1,2.54c-.08,0-.12.07-.12.2s0,.16.12.16.12-.06.12-.18S145,67.8,144.93,67.8Zm0-1.55a.22.22,0,0,0,.06.12s.07.08.1.08l.28-.22a.33.33,0,0,0,.08-.26.77.77,0,0,0-.2-.48c-.06.11-.12.25-.2.42A1.13,1.13,0,0,0,144.93,66.25Zm.52,1.19c-.16,0-.28,0-.34,0a.48.48,0,0,0-.14.22.58.58,0,0,0,0,.2v-.12c0-.18,0-.28.16-.28a.53.53,0,0,1,.16,0,.24.24,0,0,0,.12,0S145.45,67.52,145.45,67.44Zm0-.83a.27.27,0,0,0-.18.2,1,1,0,0,0,0,.24h.39A.61.61,0,0,0,145.41,66.61Zm3.22-.8c0,.22,0,.47,0,.78a3.78,3.78,0,0,0,.12.77.69.69,0,0,0,.47-.29.78.78,0,0,0,.2-.46h-.59v-.8Zm.16,1.83c-.06,0-.08,0-.08.08s0,.08.08.08,0,0,0-.08S148.81,67.64,148.79,67.64Zm.31-2.9s0-.08-.07-.08-.08,0-.08.08,0,.08.08.08S149.1,64.79,149.1,64.74Zm.32,1.23c-.08,0-.12.06-.12.16a.12.12,0,0,0,.24,0C149.54,66,149.5,66,149.42,66Zm.32-.63s0,0-.08,0-.08,0-.08,0,0,.07.08.07S149.74,65.39,149.74,65.34Zm1-1.83q-.12,0-.12.15a.12.12,0,0,0,.24,0Q150.82,63.51,150.7,63.51Zm.79,2.3c-.1.06-.16.12-.16.2v.24h.32Zm1.12,0a.61.61,0,0,0,.08.32c.05.11.1.16.15.16s.11,0,.16-.12a.32.32,0,0,0,.08-.2.16.16,0,0,0-.12-.18l-.19,0-.08,0A.13.13,0,0,1,152.61,65.81Zm.95,1a.38.38,0,0,0-.4.32,2.6,2.6,0,0,0-.08.59h.32s.06-.14.1-.42S153.56,66.82,153.56,66.77Zm.16.12c-.08,0-.12.06-.12.2s0,.15.12.15.12,0,.12-.15S153.8,66.89,153.72,66.89Z" transform="translate(-27.36 -58.25)"/><path class="cls-1" d="M158.81,92.15a1.82,1.82,0,0,1-.16-.76.42.42,0,0,1,.2-.42.37.37,0,0,0,.19-.38.79.79,0,0,0-.12-.45c-.07-.12-.17-.26-.27-.42h0s0,0,0,0,0,0,0,0h.12c.21,0,.31.07.31.2a.18.18,0,0,0,.2.2h.12a2.68,2.68,0,0,1,.1-1,8.71,8.71,0,0,1,.32-.85c.12-.28.23-.57.34-.86a3,3,0,0,0,.16-1,.19.19,0,0,1,.2.12c0,.08.1.12.23.12a4.83,4.83,0,0,0,1.16-.16q.6-.17,1.11-.36l.32,1.19s.1-.09.16-.2a2.32,2.32,0,0,0,.14-.35,3.25,3.25,0,0,0,.08-.38.63.63,0,0,0,0-.26c.26-.21.5-.39.71-.54a1.38,1.38,0,0,1,.76-.22l.14,0a.42.42,0,0,0,.14,0l-.36.36c0,.13.11.29.16.46s.11.26.16.26a.54.54,0,0,0,.44-.22,2.94,2.94,0,0,0,.27-.5c.08-.18.16-.38.24-.58a1.29,1.29,0,0,1,.28-.45.86.86,0,0,1,.36-.22l.36-.12a1,1,0,0,0,.28-.16.43.43,0,0,0,.12-.34.63.63,0,0,0-.3-.53,1,1,0,0,0-.62-.22c-.13,0-.22,0-.26.1a.21.21,0,0,1-.18.1h-.08c-.05-.35-.1-.7-.16-1.06s-.12-.69-.19-1h-.16a.45.45,0,0,0-.2.06.49.49,0,0,0-.16.1h-.16a5.13,5.13,0,0,0-.06-.54,1.15,1.15,0,0,0-.14-.5c-.13-.32-.34-.44-.62-.36a2.78,2.78,0,0,1-.77.12v.28a1.42,1.42,0,0,1-1-.46,1.67,1.67,0,0,1-.55-1l-.16.12a.43.43,0,0,1-.2.08l-.08-.08c-.06,0-.08-.09-.08-.12a1.29,1.29,0,0,1-.22-.56,2.63,2.63,0,0,1,.06-.63c-.16.1-.3.19-.42.25a.9.9,0,0,1-.46.1c-.29,0-.41-.14-.35-.43a4.6,4.6,0,0,0,.08-.72,2.44,2.44,0,0,1-.44-.08c-.21,0-.32.07-.32.36,0,0,.06.14.18.26s.18.2.18.26a1,1,0,0,1-.14.23,1.68,1.68,0,0,1-.22.28h-.16a.57.57,0,0,1-.12-.28.4.4,0,0,0-.08-.23s-.1-.06-.24-.08l-.27-.08a2,2,0,0,1-.76-.8,3,3,0,0,1-.3-1,4.91,4.91,0,0,1,0-.82c0-.22,0-.34,0-.34l-.52.08-.07,0a.67.67,0,0,0-.1.18,1.15,1.15,0,0,1-.1.18,0,0,0,0,1,0,0,.12.12,0,0,1-.08,0,1.62,1.62,0,0,0-.16-.78,2.22,2.22,0,0,0-.4-.47l-.48-.44a1.73,1.73,0,0,1-.4-.66c0-.05,0-.21,0-.47s0-.43,0-.48a4.13,4.13,0,0,1,.39-1.91,11.71,11.71,0,0,1,.86-1.39c.3-.43.59-.83.85-1.22a2.31,2.31,0,0,0,.4-1.37h1.27a1,1,0,0,0,0-.28,1.65,1.65,0,0,1,0-.32.5.5,0,0,1,.08-.27.37.37,0,0,1,.32-.12c.16,0,.31.14.46.41a.74.74,0,0,0,.7.42v.4a.61.61,0,0,1,.19,0s.07,0,.12-.18V64.46a.43.43,0,0,1,.08-.2l.12-.16a.7.7,0,0,1,.54.2,1.53,1.53,0,0,1,.28.46,4.12,4.12,0,0,1,.16.56,1.46,1.46,0,0,0,.22.53c.16,0,.23-.14.23-.36v-.35c0-.45-.09-.73-.29-.82a7.74,7.74,0,0,1-1-.58v-.16h1.39a.3.3,0,0,1,.26.16.93.93,0,0,1,.14.36,3,3,0,0,1,.06.4c0,.13,0,.24,0,.32h.56l.36-.88,1,.52a.54.54,0,0,1,.52-.4c.21,0,.32.08.32.24a.3.3,0,0,0,.2.32s.07,0,.15,0a.12.12,0,0,1,.08,0v-.68a.16.16,0,0,0,.12,0l.08,0a.13.13,0,0,0,.08,0,.32.32,0,0,1,.2.32.47.47,0,0,1-.1.32.53.53,0,0,0-.1.32V65l.16.16h.08c.21,0,.33-.14.34-.4s0-.44,0-.52a1.05,1.05,0,0,1,.61.26,2,2,0,0,1,.5.5l.18-.18a2.55,2.55,0,0,1,.3-.26l.3-.22a.56.56,0,0,1,.18-.1.51.51,0,0,1,.47.26,1.59,1.59,0,0,1,.22.6,3.66,3.66,0,0,1,.06.65,1.89,1.89,0,0,0,0,.44,1.49,1.49,0,0,0,.26.26,1,1,0,0,1,.26.26v.08a.12.12,0,0,0,0,.08.58.58,0,0,1,0,.1.44.44,0,0,0,0,.1,2.22,2.22,0,0,1-.06.35,1.55,1.55,0,0,1-.1.36h-.08c-.13,0-.22,0-.26-.1a2.18,2.18,0,0,1-.12-.22.58.58,0,0,0-.22-.22,1.3,1.3,0,0,0-.59-.09l-.08.11c0,.08-.07.14,0,.16a.51.51,0,0,0,.26.08,1,1,0,0,1,.26.08.36.36,0,0,1,.19.22c0,.09.06.19.08.28a.9.9,0,0,0,.12.24.43.43,0,0,0,.32.1.35.35,0,0,1-.16.28,3,3,0,0,1-.37.24,1.57,1.57,0,0,0-.38.25.48.48,0,0,0-.16.38.46.46,0,0,0,.2.44.48.48,0,0,1,.2.44.24.24,0,0,0,0,.12v.16a.62.62,0,0,0-.22-.26c-.12-.1-.26-.2-.4-.3a2.53,2.53,0,0,0-.44-.26.82.82,0,0,0-.34-.1.21.21,0,0,0-.21.1.24.24,0,0,1-.22.1h-.08a1,1,0,0,1-.22-.18l-.32-.32-.32-.32a1,1,0,0,1-.18-.22.45.45,0,0,1-.14-.25c0-.1,0-.2,0-.3a.45.45,0,0,0-.08-.24.31.31,0,0,0-.25-.08,7.16,7.16,0,0,0-.72.06l-1.1.12-1.09.1a4.85,4.85,0,0,0-.71.08,1.88,1.88,0,0,0-.82.18.84.84,0,0,0-.38.39,5.87,5.87,0,0,0-.22.6,3,3,0,0,1-.34.74c-.18-.06-.24-.11-.17-.16a.24.24,0,0,0,.1-.16,2.47,2.47,0,0,1-.5,0,1.17,1.17,0,0,0-.36,0c-.09,0-.16.08-.2.2a2.14,2.14,0,0,0-.06.61c0,.3.12.44.36.44s.28-.1.3-.3.1-.29.26-.29a5,5,0,0,0,.06.65,4.64,4.64,0,0,0,.19.82,2.55,2.55,0,0,0,.38.69.71.71,0,0,0,.56.3h0l-.12.08a.1.1,0,0,0,0,.08s0,0,0,0v.16a.32.32,0,0,0,.26.32l.52.18a1,1,0,0,1,.43.3.53.53,0,0,1,0,.59.39.39,0,0,1,.36-.16.43.43,0,0,1,.42.22,2.51,2.51,0,0,1,.16.46,2,2,0,0,0,.18.46.46.46,0,0,0,.44.22h.15a.7.7,0,0,1-.21-.44,3.47,3.47,0,0,1,0-.44.68.68,0,0,0-.12-.38.9.9,0,0,0-.48-.3.48.48,0,0,1,.18,0h.14a1,1,0,0,1,.59.2c.19.14.38.28.56.44l.54.48a1.33,1.33,0,0,0,.58.32l.63.2c.27.07.4.13.4.15l.87,1.71a.93.93,0,0,1,.06-.25c0-.12.08-.21.1-.26l0,0h.08l0,0a4.59,4.59,0,0,1,.56,1.23l.32-.2a1.56,1.56,0,0,0-.08.86,2.54,2.54,0,0,0,.3.85,2.25,2.25,0,0,0,.57.7,1.76,1.76,0,0,0,.76.38,7.39,7.39,0,0,1,.52.77,1.71,1.71,0,0,1,.23.86,1.12,1.12,0,0,1-.37.65c-.26.28-.49.38-.7.3a1.74,1.74,0,0,1,.32,1,3.79,3.79,0,0,1-.1.73c-.07.33-.23.5-.5.5h-.08a.38.38,0,0,0-.16-.08.67.67,0,0,1-.2-.12v.2c0,.11.07.26.12.48a1.79,1.79,0,0,1,.08.39l.16.16a2.74,2.74,0,0,0-.2.26c-.08.12-.13.21-.16.26a1.31,1.31,0,0,1-.31.48,1.68,1.68,0,0,0-.36.4.4.4,0,0,0,.36.2v.51a.79.79,0,0,1-.62-.3.7.7,0,0,0-.54-.29l-.08,0-.35,1.9c0,.06-.06.11-.16.16h-.08a.22.22,0,0,1-.22-.12.7.7,0,0,1-.08-.23,2.1,2.1,0,0,0-.06-.24A.18.18,0,0,0,167,90a.4.4,0,0,0-.44.3,5.49,5.49,0,0,0-.12.61h-.2a.57.57,0,0,1-.51-.34c-.14-.22-.24-.4-.32-.53s-.2.08-.2.16v.28c0,.13,0,.21.1.25s.1.13.1.26a2.12,2.12,0,0,1,0,.42c0,.15-.13.22-.32.22l-.08,0-.12,0c.05,0,.05-.17,0-.34a.82.82,0,0,0-.16-.34h-.2a0,0,0,0,1,0,0l-.41,0a.23.23,0,0,0-.22.26v.08a.44.44,0,0,0,.18.1.67.67,0,0,1,.18.1l0,0s0,0,0,0a.85.85,0,0,0-.48.08.16.16,0,0,0,0,.2q0,.12.06.3a.54.54,0,0,1-.14.37.67.67,0,0,1-.32.08,2,2,0,0,0-.36.08s-.09.06-.12.16a.38.38,0,0,1-.08.2s0,0,0,0h-.12a.44.44,0,0,1-.43-.22.56.56,0,0,0-.52-.22l-.24,0-.2,0s-.08.06-.16.18-.14.18-.2.18-.14-.06-.25-.18-.21-.18-.26-.18l-.3-.1a3.16,3.16,0,0,1-.46-.16l-.46-.15Zm-2.23-22.84a.14.14,0,0,0-.16.16.14.14,0,0,0,.16.16c.08,0,.12,0,.12-.16S156.66,69.31,156.58,69.31Zm.79,3a.25.25,0,0,0,.18.26,1.58,1.58,0,0,0,.38,0,.91.91,0,0,0,.46-.09.51.51,0,0,0,.14-.42s0-.15,0-.28a.27.27,0,0,0-.22-.24.3.3,0,0,1,0,.34.78.78,0,0,1-.28.22,2.53,2.53,0,0,1-.36.12A2.08,2.08,0,0,1,157.37,72.26Zm.4,1a.4.4,0,0,0,.36.2v-.2Zm.68-.4c.26,0,.41.15.45.44A5.17,5.17,0,0,1,159,74a1.2,1.2,0,0,0,.5-.92c0-.4.06-.74.06-1v-.14s-.07-.09-.2-.14a.75.75,0,0,1-.2.72,1,1,0,0,1-.67.31ZM159,76c-.07,0-.11.06-.11.17s0,.18.11.18.16-.06.16-.18S159.07,76,159,76Zm0-.52c-.05,0-.07,0-.07.08s0,.12.07.12a.12.12,0,0,0,.08-.12S159,75.52,159,75.52Zm.36,16.11h.2v-.16h-.2Zm.52-24.94a.55.55,0,0,0-.2.36h.2Zm.2,23.55c0-.06,0-.08-.08-.08s-.12,0-.12.08a.14.14,0,0,0,.12.08A.07.07,0,0,0,160,90.24Zm0-14h.16V76Zm.67,14.88c-.31,0-.51,0-.59.16a.24.24,0,0,0,0,.34,1.51,1.51,0,0,0,.57.34,3,3,0,0,0,1,.16s0-.06-.08-.16a2.45,2.45,0,0,0-.32-.34l-.4-.34A.67.67,0,0,0,160.71,91.11Zm-.55-22a.35.35,0,0,0,.4.4v-.4Zm.2,22.88q-.12,0-.12.18c0,.12,0,.17.12.17s.16,0,.16-.17S160.46,92,160.36,92Zm.2-23.39h.31v-.16h-.31Zm.15-1.4c-.07,0-.11.06-.11.18s0,.18.11.18.12-.06.12-.18S160.79,67.2,160.71,67.2Zm.36,9.71a1,1,0,0,0,.06.26c0,.12.08.21.1.26a.41.41,0,0,0,.24-.36,2.62,2.62,0,0,0,0-.36,1.7,1.7,0,0,0-.28,0C161.13,76.78,161.07,76.83,161.07,76.91Zm0,13.68a.37.37,0,0,0,.16.36.58.58,0,0,1,0-.1.2.2,0,0,0,0-.1.29.29,0,0,0-.2-.31Zm.16-14.87c-.08,0-.12,0-.12.16s0,.16.12.16.12-.06.12-.16S161.31,75.72,161.23,75.72Zm1,11.41a4.58,4.58,0,0,1-.48.36c-.27.19-.4.32-.4.4l1.23.36Zm-.52-20.24c-.05,0-.08,0-.08.06s0,.1.08.1.08-.06.08-.1S161.8,66.89,161.75,66.89Zm.52,11.57h.23c0-.1-.07-.21-.23-.32Zm1.39-1c-.06,0-.08,0-.08.08s0,.12.08.12S163.79,77.43,163.66,77.43Zm.79-12.49a.33.33,0,0,0-.35.22,1,1,0,0,0-.08.41v.28a2.3,2.3,0,0,0,.41-.28.52.52,0,0,0,.26-.43.14.14,0,0,0-.16-.16Zm-.27,12.49h.15v-.16h-.15Zm.51-1.71c-.08,0-.12,0-.12.16s0,.16.12.16.12-.06.12-.16S164.77,75.72,164.69,75.72ZM164.61,79c0,.13.09.22.26.28a1.78,1.78,0,0,0,.34.08.48.48,0,0,0,.16-.16c0-.08.07-.15,0-.2Zm.08,10.42.16-.2h-.16Zm.16-13.17h.2l-.2-.19Zm.2,2.07.16-.16h-.36Zm.16-1.19c-.08,0-.12,0-.12.16s0,.16.12.16a.16.16,0,0,0,0-.32Zm.2,2.39c-.16.13-.24.25-.24.35h.24Zm.52,9.7a.34.34,0,0,0-.36.2h.52C166.09,89.27,166,89.2,165.93,89.2Zm-.2-10.74H166a1.7,1.7,0,0,0,0-.28.4.4,0,0,0-.24-.24Zm.43-2.11a.2.2,0,0,0-.17.16,1.89,1.89,0,0,0-.1.36,1.69,1.69,0,0,0,0,.38v.22a.69.69,0,0,0,.43-.16.48.48,0,0,0,.2-.4,1.43,1.43,0,0,0-.06-.34A.26.26,0,0,0,166.16,76.35Zm-.07,3.5h.15l-.15-.51Zm.15-15c-.08,0-.12.05-.12.16s0,.16.12.16a.14.14,0,0,0,.16-.16A.14.14,0,0,0,166.24,64.82ZM167,76.75c-.05,0-.08,0-.08.16s0,.23.08.2Q167.13,76.83,167,76.75Zm0,4.5a1.92,1.92,0,0,0,.14.67.55.55,0,0,0,.58.36h.16l.45-.08a1.28,1.28,0,0,0,.42-.08.09.09,0,0,0,0-.08.16.16,0,0,0-.12-.18l-.24,0a.5.5,0,0,1-.24-.1.34.34,0,0,1-.12-.31c-.18.13-.31.19-.37.17h-.42a.86.86,0,0,1,.1-.48c.06-.11-.05-.23-.34-.36,0,0,0,.14,0,.26S166.92,81.19,166.92,81.25Zm.2,4.13c-.05,0-.08,0-.08.08s0,.12.08.12a.12.12,0,0,0,.08-.12A.07.07,0,0,0,167.12,85.38Zm.16-6.4s0-.08-.06-.08-.1,0-.1.08.06.08.1.08S167.28,79,167.28,79Zm0,5.73q-.12,0-.12.18t.12.18c.1,0,.16-.06.16-.18S167.38,84.71,167.28,84.71Zm.2-5.21a.6.6,0,0,0,.32.55v-.91C167.58,79.14,167.48,79.26,167.48,79.5Zm.16-14.16q-.12,0-.12.15c0,.11,0,.16.12.16s.12-.05.12-.16S167.72,65.34,167.64,65.34Zm0,13.12a.38.38,0,0,0,.35.24v-.24Zm1.27,1.47a1.77,1.77,0,0,0-.8.18.68.68,0,0,0-.35.66,1.58,1.58,0,0,0,.73-.22A.68.68,0,0,0,168.91,79.93Zm-.6-13h.24a.38.38,0,0,0-.24-.36Zm.2,12.61h.16l-.16-.16Zm.16,4.17h.2v-.35h-.2Zm1.59,1a.68.68,0,0,0-.38.12,1.75,1.75,0,0,0-.33.28h.23C170.1,85.07,170.26,84.93,170.26,84.67Zm-.36-.84a.34.34,0,0,0,.2-.32h-.2Zm.16-1.91c-.05,0-.08,0-.08.08s0,.12.08.12a.11.11,0,0,0,.08-.12S170.12,81.92,170.06,81.92Zm.16.72c-.08,0-.12,0-.12.16s0,.16.12.16a.14.14,0,0,0,.16-.16A.14.14,0,0,0,170.22,82.64Z" transform="translate(-27.36 -58.25)"/></svg>